<svg width="72" height="72" viewBox="0 0 72 72" fill="none" xmlns="http://www.w3.org/2000/svg">
<path d="M71.3078 30.3695C71.2495 30.0253 71.0823 29.7134 70.8344 29.4873C68.5139 27.3706 68.1222 25.0365 67.8073 23.1612L67.7661 22.9169C67.6574 22.2768 67.1806 21.7836 66.5831 21.6929C66.3769 21.6617 66.1586 21.6457 65.9342 21.6457C64.6006 21.6457 62.7218 22.2516 61.5306 23.605C61.3274 23.836 61.1969 24.1304 61.158 24.446C61.0578 25.258 61.0062 26.0011 60.9608 26.6568C60.7892 29.1274 60.6374 29.3894 59.9394 29.6276C59.502 29.7768 59.1601 30.1475 59.024 30.6198C58.3667 32.9018 57.4944 35.0855 56.4386 37.1457C55.9172 36.0723 55.341 35.1068 54.8048 34.2083C53.4932 32.011 52.4571 30.2752 52.811 28.124C53.9581 21.1516 53.3759 15.8993 51.0801 12.5128C49.8015 10.6269 47.9802 9.34121 45.7667 8.74059C46.2073 5.03378 48.5962 3.35324 49.9185 2.97111C50.6661 2.75518 51.1098 1.92655 50.9094 1.12042C50.709 0.314451 49.9405 -0.164387 49.1932 0.0519889C46.4629 0.840886 43.5464 3.73704 42.9894 8.36284C40.753 8.35604 38.7218 9.0925 37.0504 10.5325C33.9962 13.1639 32.1509 18.0538 31.5656 25.0661C31.3894 27.1762 30.1235 28.4074 28.3712 30.1111C26.9409 31.5018 25.3477 33.0545 24.0714 35.4019C22.4817 34.7038 20.7763 34.2509 18.9956 34.087C19.5003 30.5283 21.8215 28.9033 23.1183 28.5287C23.8659 28.3128 24.3095 27.4842 24.1091 26.6782C23.9087 25.8721 23.1403 25.3934 22.393 25.6098C21.6888 25.8132 20.9727 26.1584 20.2873 26.6356C19.9685 24.9389 19.1973 23.3475 18.0294 22.0884C16.4648 20.4012 14.3843 19.4721 12.1714 19.4721C11.4471 19.4721 10.7257 19.5741 10.0272 19.775C9.54278 19.9145 9.1643 20.3226 9.03496 20.845C8.27365 23.9193 9.09564 27.2257 11.1802 29.4739C12.6306 31.0379 14.525 31.9491 16.5568 32.074C16.3797 32.6993 16.248 33.3647 16.1715 34.0704C7.14045 34.802 0 42.959 0 52.8809C0 63.2825 7.84781 71.7449 17.4939 71.7449C21.0789 71.7449 24.4938 70.596 27.4172 68.4165C27.8777 68.6344 28.3397 68.8441 28.8038 69.0415C33.0211 70.8352 37.2832 71.7448 41.4714 71.7448C48.2082 71.7448 54.4606 69.3713 59.5528 64.8807C64.8753 60.1871 68.798 53.242 70.8965 44.7964C71.5813 42.0418 72.1854 35.5515 71.3078 30.3695ZM30.2482 32.3555C32.1331 30.5227 34.0821 28.6274 34.3569 25.3372C34.871 19.1776 36.3657 14.9909 38.7999 12.8937C40.2449 11.6488 42.0309 11.1688 44.109 11.4683C46.1613 11.7637 47.7456 12.7151 48.8177 14.2966C50.645 16.9919 51.0602 21.4666 50.0515 27.5962C49.5055 30.9145 51.0014 33.4205 52.4481 35.8441C53.2589 37.2024 54.0935 38.6029 54.661 40.233C49.9383 47.5871 42.7721 52.9501 34.8867 54.914C34.954 54.2398 34.9882 53.5606 34.9882 52.8809C34.9882 46.0649 31.618 40.0818 26.5804 36.7665C27.6288 34.9058 28.9564 33.6118 30.2482 32.3555ZM13.1616 27.3369C11.9844 26.0673 11.4157 24.2872 11.5875 22.5272C11.7812 22.5051 11.9758 22.4938 12.1711 22.4938C13.6353 22.4938 15.0121 23.1086 16.0473 24.2249C17.2247 25.4945 17.7935 27.2748 17.6215 29.0346C17.428 29.0567 17.2332 29.0679 17.0383 29.0679H17.038C15.5734 29.068 14.1968 28.4532 13.1616 27.3369ZM17.4939 68.7229C9.39299 68.7229 2.80254 61.6164 2.80254 52.8809C2.80254 44.1455 9.39299 37.0389 17.4939 37.0389C25.5949 37.0389 32.1855 44.1455 32.1855 52.8809C32.1855 53.7519 32.1195 54.6213 31.989 55.4767C31.0876 55.6021 30.18 55.6817 29.2682 55.7153C29.4601 54.7886 29.5605 53.8416 29.5605 52.8809C29.5605 51.1792 29.2568 49.518 28.6581 47.9437C28.3645 47.1719 27.5463 46.8023 26.8298 47.1191C26.1139 47.4358 25.7714 48.3184 26.0652 49.0905C26.5249 50.2992 26.7579 51.5743 26.7579 52.8809C26.7579 53.831 26.6331 54.7644 26.389 55.6681C24.3835 55.529 22.375 55.1716 20.3962 54.5998C19.9932 54.4833 19.5627 54.5667 19.2223 54.8272C17.9769 55.7807 16.7216 56.98 15.9773 59.2794C15.7854 59.872 15.9533 60.5308 16.3991 60.9346C18.9732 63.2662 21.6626 65.2428 24.433 66.8473C22.3124 68.0789 19.9513 68.7229 17.4939 68.7229ZM68.1896 44.0145C64.3449 59.4861 54.3569 68.7229 41.4715 68.7229C33.9493 68.7229 26.009 65.3974 19.0103 59.3367C19.3812 58.6187 19.8399 58.1244 20.3327 57.7025C22.964 58.4026 25.6399 58.7571 28.2971 58.7571C35.8176 58.7571 43.069 55.9936 49.2674 50.7654C52.4187 48.1073 55.1499 44.9045 57.3377 41.353C57.3638 41.3149 57.3883 41.2756 57.4109 41.2351C59.1379 38.4097 60.5212 35.3655 61.4968 32.1999C63.4607 31.1343 63.6105 28.976 63.7558 26.8824C63.789 26.4038 63.8231 25.913 63.875 25.3952C64.2478 25.1042 64.7417 24.8738 65.2369 24.7553C65.6104 26.6766 66.3365 29.1427 68.6311 31.4199C69.2803 35.8716 68.8089 41.5218 68.1896 44.0145Z" fill="black"/>
<path d="M45.1913 14.5778C44.4781 14.2556 43.6565 14.6175 43.3572 15.3871C43.0579 16.1566 43.3938 17.0421 44.1076 17.3648C45.127 17.8257 45.6899 21.1425 44.7934 26.5901C44.6582 27.4118 45.1663 28.1962 45.9284 28.342C46.0112 28.3579 46.0936 28.3656 46.1749 28.3656C46.8415 28.3656 47.4325 27.8506 47.553 27.1184C48.3548 22.2469 48.5959 16.1169 45.1913 14.5778Z" fill="black"/>
<path d="M54.4536 57.8262C53.9893 57.1584 53.1095 57.0244 52.4904 57.5253C52.4898 57.5256 52.4838 57.5305 52.4834 57.5308C51.8593 58.0235 51.7263 58.9664 52.1827 59.6397C52.4566 60.0437 52.8829 60.2575 53.3149 60.2575C53.6027 60.2575 53.8932 60.1626 54.1429 59.9659L54.175 59.9404C54.7941 59.4396 54.918 58.4939 54.4536 57.8262Z" fill="black"/>
<path d="M51.2378 60.2696C50.8851 59.5268 50.041 59.2326 49.352 59.6126C44.5558 62.2581 40.5094 62.1534 40.4497 62.1505C39.6794 62.1217 39.0287 62.769 38.9984 63.6015C38.9681 64.4353 39.5704 65.1378 40.3438 65.1704C40.3652 65.1713 40.4406 65.1741 40.5657 65.1741C41.5672 65.1741 45.7412 64.9986 50.6282 62.3028C51.3172 61.9231 51.5901 61.0126 51.2378 60.2696Z" fill="black"/>
<path d="M26.0691 43.7272L26.023 43.6774C25.4744 43.0891 24.5873 43.0914 24.0413 43.6831C23.4955 44.2748 23.4979 45.2316 24.0467 45.8201L24.0768 45.8526C24.3509 46.1515 24.7118 46.3009 25.073 46.3009C25.429 46.3009 25.7854 46.1554 26.0585 45.8641C26.6086 45.2774 26.6134 44.3205 26.0691 43.7272Z" fill="black"/>
</svg>
