<svg width="21" height="21" viewBox="0 0 21 21" fill="none" xmlns="http://www.w3.org/2000/svg">
<path d="M20.7711 10.703C20.7153 10.8389 20.6205 10.9552 20.4987 11.0373C20.3769 11.1194 20.2335 11.1636 20.0867 11.1643H17.8547V18.6043C17.8547 19.1963 17.6195 19.764 17.2009 20.1826C16.7823 20.6012 16.2146 20.8363 15.6227 20.8363H12.6467C12.4493 20.8363 12.2601 20.7579 12.1206 20.6184C11.981 20.4789 11.9027 20.2896 11.9027 20.0923V15.6283C11.9027 15.431 11.8243 15.2418 11.6847 15.1022C11.5452 14.9627 11.356 14.8843 11.1587 14.8843H9.67065C9.47333 14.8843 9.28409 14.9627 9.14456 15.1022C9.00504 15.2418 8.92665 15.431 8.92665 15.6283V20.0923C8.92665 20.2896 8.84826 20.4789 8.70874 20.6184C8.56921 20.7579 8.37997 20.8363 8.18265 20.8363H5.20665C4.61469 20.8363 4.04697 20.6012 3.62839 20.1826C3.20981 19.764 2.97465 19.1963 2.97465 18.6043V11.1643H0.742651C0.595766 11.1636 0.452385 11.1194 0.330577 11.0373C0.20877 10.9552 0.113986 10.8389 0.0581706 10.703C0.00119553 10.5675 -0.0143709 10.4182 0.0134354 10.2739C0.0412418 10.1296 0.111175 9.9967 0.214411 9.89207L9.88641 0.220074C9.95557 0.15034 10.0379 0.0949906 10.1285 0.0572187C10.2192 0.0194469 10.3164 0 10.4147 0C10.5129 0 10.6101 0.0194469 10.7008 0.0572187C10.7914 0.0949906 10.8737 0.15034 10.9429 0.220074L20.6149 9.89207C20.7181 9.9967 20.7881 10.1296 20.8159 10.2739C20.8437 10.4182 20.8281 10.5675 20.7711 10.703Z" fill="#E67F1E"/>
</svg>
