<svg width="24" height="23" viewBox="0 0 24 23" fill="none" xmlns="http://www.w3.org/2000/svg">
<path d="M18.0322 17.1324C16.5031 17.1309 15.2624 18.3693 15.2609 19.8983C15.2594 21.4274 16.4978 22.6681 18.0268 22.6697C19.5559 22.6711 20.7966 21.4328 20.7981 19.9037V19.901C20.7967 18.3736 19.5596 17.1354 18.0322 17.1324Z" fill="#B1B1B1"/>
<path d="M22.9428 3.87472C22.8765 3.86189 22.8092 3.85537 22.7417 3.85527H5.88435L5.61737 2.06913C5.45103 0.882927 4.43638 0.000365018 3.23855 0H1.06794C0.478122 0 0 0.478121 0 1.06794C0 1.65776 0.478122 2.13588 1.06794 2.13588H3.24121C3.37699 2.13489 3.49192 2.236 3.50819 2.37084L5.15281 13.6429C5.37828 15.0752 6.61032 16.1319 8.06028 16.1366H19.1695C20.5655 16.1384 21.7698 15.1573 22.0503 13.7898L23.7883 5.1261C23.9004 4.54703 23.5218 3.98678 22.9428 3.87472Z" fill="#B1B1B1"/>
<path d="M11.2497 19.7825C11.1847 18.2983 9.9598 17.1299 8.47412 17.135C6.94631 17.1968 5.75781 18.4854 5.81955 20.0132C5.87879 21.4792 7.07131 22.6444 8.53821 22.6697H8.60496C10.1326 22.6027 11.3166 21.3101 11.2497 19.7825Z" fill="#B1B1B1"/>
</svg>
