<svg width="24" height="24" viewBox="0 0 24 24" fill="none" xmlns="http://www.w3.org/2000/svg">
<g clip-path="url(#clip0_1_1683)">
<path d="M23.3722 6.56892L19.3437 10.5974C19.0531 10.888 18.6723 11.0333 18.2915 11.0333C17.9106 11.0333 17.5299 10.888 17.2393 10.5974C16.6582 10.0163 16.6582 9.0742 17.2393 8.49309L18.7276 7.00476H3.12713C2.30533 7.00476 1.63912 6.33856 1.63912 5.51676C1.63912 4.69497 2.30533 4.02876 3.12713 4.02876H18.7276L17.2393 2.54044C16.6582 1.95932 16.6582 1.01719 17.2393 0.436077C17.8204 -0.145034 18.7625 -0.145034 19.3437 0.436077L23.3722 4.46461C23.9533 5.04567 23.9533 5.98785 23.3722 6.56892ZM19.8671 16.8037H5.08036L6.56873 15.3154C7.14979 14.7343 7.14979 13.7921 6.56873 13.211C5.98757 12.6299 5.04548 12.6299 4.46433 13.211L0.435798 17.2396C-0.145266 17.8207 -0.145266 18.7628 0.435798 19.3439L4.46433 23.3724C4.7549 23.663 5.13569 23.8083 5.51653 23.8083C5.89736 23.8083 6.27815 23.663 6.56873 23.3724C7.14979 22.7913 7.14979 21.8492 6.56873 21.2681L5.08036 19.7798H19.8671C20.6889 19.7798 21.3551 19.1136 21.3551 18.2918C21.3551 17.47 20.6889 16.8037 19.8671 16.8037Z" fill="#E67F1E"/>
</g>
<defs>
<clipPath id="clip0_1_1683">
<rect width="23.808" height="23.808" fill="white"/>
</clipPath>
</defs>
</svg>
