<svg width="24" height="24" viewBox="0 0 24 24" fill="none" xmlns="http://www.w3.org/2000/svg">
<path d="M23.3722 6.56867L19.3437 10.5972C19.0531 10.8878 18.6723 11.033 18.2915 11.033C17.9106 11.033 17.5299 10.8878 17.2393 10.5972C16.6582 10.0161 16.6582 9.07396 17.2393 8.49284L18.7276 7.00452H3.12713C2.30533 7.00452 1.63912 6.33831 1.63912 5.51652C1.63912 4.69472 2.30533 4.02852 3.12713 4.02852H18.7276L17.2393 2.54019C16.6582 1.95908 16.6582 1.01694 17.2393 0.435833C17.8204 -0.145278 18.7625 -0.145278 19.3437 0.435833L23.3722 4.46436C23.9533 5.04543 23.9533 5.98761 23.3722 6.56867ZM19.8671 16.8035H5.08036L6.56873 15.3151C7.14979 14.734 7.14979 13.7919 6.56873 13.2108C5.98757 12.6297 5.04548 12.6297 4.46433 13.2108L0.435798 17.2393C-0.145266 17.8204 -0.145266 18.7626 0.435798 19.3437L4.46433 23.3722C4.7549 23.6628 5.13569 23.808 5.51653 23.808C5.89736 23.808 6.27815 23.6628 6.56873 23.3722C7.14979 22.7911 7.14979 21.849 6.56873 21.2678L5.08036 19.7795H19.8671C20.6889 19.7795 21.3551 19.1133 21.3551 18.2915C21.3551 17.4697 20.6889 16.8035 19.8671 16.8035Z" fill="#B1B1B1"/>
</svg>
