<svg width="139" height="139" viewBox="0 0 139 139" fill="none" xmlns="http://www.w3.org/2000/svg">
<rect width="138.743" height="138.743" rx="28.3204" fill="#FBFBFB"/>
<path d="M51.4602 97.0371H46.9912V108.966H51.4602C55.2664 108.966 57.7133 106.536 57.7133 103.001C57.7133 99.45 55.2664 97.0371 51.4602 97.0371ZM49.8969 106.451V99.5179H51.2733C53.4653 99.5179 54.7567 100.809 54.7567 103.001C54.7567 105.193 53.4653 106.451 51.2733 106.451H49.8969ZM58.7594 104.208C58.7594 107.198 60.6116 109.102 62.9225 109.102C64.3328 109.102 65.3354 108.456 65.8621 107.623V108.966H68.7678V99.4839H65.8621V100.826C65.3524 99.9937 64.3498 99.348 62.9395 99.348C60.6116 99.348 58.7594 101.217 58.7594 104.208ZM65.8621 104.225C65.8621 105.737 64.8936 106.57 63.7891 106.57C62.7016 106.57 61.716 105.72 61.716 104.208C61.716 102.695 62.7016 101.88 63.7891 101.88C64.8936 101.88 65.8621 102.712 65.8621 104.225ZM70.8699 108.966H73.7756V99.4839H70.8699V108.966ZM72.3313 98.4984C73.3508 98.4984 74.0475 97.8017 74.0475 96.9351C74.0475 96.0515 73.3508 95.3548 72.3313 95.3548C71.2947 95.3548 70.5981 96.0515 70.5981 96.9351C70.5981 97.8017 71.2947 98.4984 72.3313 98.4984ZM78.787 104.565C78.787 102.933 79.5856 102.458 80.962 102.458H81.7606V99.382C80.4862 99.382 79.4497 100.062 78.787 101.064V99.4839H75.8813V108.966H78.787V104.565ZM87.5165 105.414L85.3245 99.4839H82.079L85.9362 108.643L83.7612 113.469H86.8878L92.835 99.4839H89.6915L87.5165 105.414ZM51.4653 118.467C50.8128 118.739 50.405 119.31 50.405 120.09C50.405 121.349 51.4381 122.111 52.7884 122.111C54.1478 122.111 55.1809 121.349 55.1809 120.09C55.1809 119.319 54.7731 118.748 54.1206 118.467C54.6371 118.205 55.0178 117.706 55.0178 117.008C55.0178 116.066 54.2928 115.232 52.7884 115.232C51.284 115.232 50.559 116.057 50.559 117.008C50.559 117.724 50.9215 118.187 51.4653 118.467ZM52.7884 118.096C52.2175 118.096 51.8006 117.742 51.8006 117.199C51.8006 116.582 52.1993 116.256 52.7884 116.256C53.3956 116.256 53.7853 116.592 53.7853 117.19C53.7853 117.733 53.3684 118.096 52.7884 118.096ZM52.7884 119.02C53.4681 119.02 53.9393 119.383 53.9393 120.035C53.9393 120.615 53.5134 121.059 52.7884 121.059C52.0634 121.059 51.6284 120.624 51.6284 120.035C51.6284 119.365 52.1268 119.02 52.7884 119.02ZM56.0199 115.377V116.465H59.1193L56.6905 121.966H57.9774L60.388 116.32V115.377H56.0199ZM63.4524 121.966H64.7211V115.64H63.4524V121.966ZM66.174 120.407C66.174 121.558 66.8175 121.966 67.7781 121.966H68.5756V120.896H67.9865C67.5878 120.896 67.4518 120.751 67.4518 120.416V117.987H68.5756V116.945H67.4518V115.703H66.174V116.945H65.5759V117.987H66.174V120.407ZM71.645 117.906C72.2975 117.906 72.8231 118.322 72.8413 118.984H70.4578C70.5575 118.295 71.0378 117.906 71.645 117.906ZM74.0285 120.389H72.66C72.4969 120.724 72.1978 120.996 71.6541 120.996C71.0197 120.996 70.5122 120.579 70.4488 119.836H74.1191C74.1463 119.673 74.1553 119.51 74.1553 119.347C74.1553 117.851 73.1313 116.863 71.6813 116.863C70.195 116.863 69.1619 117.869 69.1619 119.455C69.1619 121.032 70.2222 122.047 71.6813 122.047C72.9228 122.047 73.7566 121.313 74.0285 120.389ZM82.1049 121.966H83.3736V119.02C83.3736 117.634 82.5217 116.872 81.3164 116.872C80.5824 116.872 79.9208 117.262 79.5945 117.833C79.2502 117.208 78.6067 116.872 77.8274 116.872C77.202 116.872 76.6674 117.135 76.3502 117.552V116.945H75.0814V121.966H76.3502V119.192C76.3502 118.395 76.7942 117.978 77.483 117.978C78.1536 117.978 78.5977 118.395 78.5977 119.192V121.966H79.8664V119.192C79.8664 118.395 80.3105 117.978 80.9902 117.978C81.6608 117.978 82.1049 118.395 82.1049 119.192V121.966ZM88.4745 120.534C88.4382 118.694 85.656 119.265 85.656 118.35C85.656 118.06 85.9007 117.869 86.372 117.869C86.8704 117.869 87.1785 118.132 87.2148 118.522H88.4292C88.3567 117.525 87.6226 116.863 86.4082 116.863C85.1666 116.863 84.4235 117.534 84.4235 118.368C84.4235 120.207 87.2601 119.637 87.2601 120.534C87.2601 120.824 86.9882 121.05 86.4898 121.05C85.9823 121.05 85.6288 120.76 85.5835 120.38H84.3057C84.3601 121.313 85.2391 122.047 86.4988 122.047C87.7223 122.047 88.4745 121.395 88.4745 120.534Z" fill="#E67F1E"/>
<path d="M103.735 74.1702H100.016C99.8871 69.1768 96.7161 65.1661 92.8369 65.1661C88.9566 65.1661 85.7852 69.1768 85.6565 74.1702H84.7895C84.7123 71.1716 83.5376 68.5272 81.7713 66.8931V35.9676C81.7713 35.9598 81.7713 35.952 81.7713 35.9436C81.7713 35.653 81.6728 35.3869 81.5096 35.1844L75.0419 26.8047V20.2166C75.0419 18.2601 73.5875 16.6685 71.7993 16.6685H49.3357C47.548 16.6685 46.0931 18.2601 46.0931 20.2166V26.8047L39.6112 35.2012C39.4508 35.4091 39.3632 35.6722 39.3632 35.9436V41.3805C39.3632 42.0157 39.8334 42.5311 40.4142 42.5311C40.9944 42.5311 41.4651 42.0157 41.4651 41.3805V37.0942H79.6694V65.5562C79.0164 65.3021 78.325 65.1661 77.6091 65.1661C73.7299 65.1661 70.5589 69.1768 70.4303 74.1702H66.712C66.1313 74.1702 65.6611 74.685 65.6611 75.3208C65.6611 75.9565 66.1313 76.4713 66.712 76.4713H68.3695L70.82 86.1118H63.8389C63.8493 86.0118 63.8548 85.9105 63.8548 85.8074V83.2109C63.8548 82.4277 63.3161 81.7829 62.6024 81.711C61.4874 81.599 60.6466 80.5875 60.6466 79.359C60.6466 78.1306 61.4874 77.1197 62.6029 77.007C63.3167 76.9351 63.8553 76.2903 63.8553 75.5077V71.7912C63.8553 71.0374 63.3451 70.3938 62.6691 70.2931C62.1858 70.2212 61.8207 69.7628 61.8207 69.2265C61.8207 68.6902 62.1858 68.2318 62.6697 68.1599C63.3451 68.0598 63.8553 67.4156 63.8553 66.6618V64.8928C63.8553 63.4558 62.7874 62.2867 61.4748 62.2867H41.4651V45.9827C41.4651 45.3469 40.9944 44.8321 40.4142 44.8321C39.8334 44.8321 39.3632 45.3469 39.3632 45.9827V62.2867H38.0243C37.8092 62.2867 37.5979 62.3017 37.3905 62.3311C34.9405 62.6726 33.0405 64.9695 33.0405 67.7428V82.9574C33.0405 85.7313 34.9405 88.0276 37.3905 88.3698C37.5979 88.3985 37.8092 88.4135 38.0243 88.4135H61.4748C61.4912 88.4135 61.5076 88.4135 61.524 88.4129H72.9406C72.9564 88.4135 72.9718 88.4135 72.9871 88.4135H82.2327C83.1638 88.4135 83.9887 87.7274 84.2388 86.7452L85.223 82.8717L86.2077 86.7452C86.4579 87.7274 87.2828 88.4135 88.2138 88.4135H97.4595C98.3905 88.4135 99.216 87.7274 99.4656 86.7452L102.077 76.4713H103.735C104.315 76.4713 104.785 75.9565 104.785 75.3208C104.785 74.6856 104.315 74.1702 103.735 74.1702ZM78.4564 34.7937H42.6781L47.6329 28.3759H73.5027L78.4564 34.7937ZM49.3357 18.9696H71.7998C72.4288 18.9696 72.9406 19.5293 72.9406 20.2166V26.0748H48.195V20.2166C48.195 19.5293 48.7068 18.9696 49.3357 18.9696ZM92.8369 67.4671C95.5623 67.4671 97.7928 70.446 97.9127 74.1702H87.7595C87.8794 70.446 90.111 67.4671 92.8369 67.4671ZM77.6091 67.4671C78.4936 67.4671 79.3262 67.7805 80.0509 68.3312C80.0887 68.3654 80.1275 68.396 80.1691 68.4241C81.6153 69.5932 82.6077 71.7205 82.6865 74.1702H72.5333C72.6532 70.446 74.8837 67.4671 77.6091 67.4671ZM38.0243 86.1124C36.4353 86.1124 35.1424 84.697 35.1424 82.9574V67.7428C35.1424 66.0032 36.4353 64.5884 38.0243 64.5884H38.5235C37.9444 65.4795 37.604 66.5683 37.604 67.7428V70.4513C37.604 71.0865 38.0747 71.6019 38.6549 71.6019C39.2357 71.6019 39.7059 71.0865 39.7059 70.4513V67.7428C39.7059 66.0032 40.9987 64.5884 42.5878 64.5884H61.4748C61.628 64.5884 61.7528 64.725 61.7528 64.8928V66.0511C60.5585 66.5269 59.7188 67.7877 59.7188 69.2265C59.7188 70.6659 60.5579 71.9267 61.7528 72.4025V74.8384C59.8841 75.3501 58.5447 77.182 58.5447 79.359C58.5447 81.5366 59.8841 83.3685 61.7528 83.8809V85.808C61.7528 85.9698 61.6374 86.1022 61.4912 86.1118H61.4748C61.4638 86.1118 61.4529 86.1118 61.4425 86.1124H42.5878C40.9987 86.1124 39.7059 84.697 39.7059 82.9574V75.0535C39.7059 74.4177 39.2357 73.903 38.6549 73.903C38.0747 73.903 37.604 74.4177 37.604 75.0535V82.9574C37.604 84.1325 37.945 85.2214 38.5241 86.1124H38.0243ZM97.4447 86.1124H88.2286L87.0025 81.288C86.8312 80.6132 86.2641 80.1416 85.6242 80.1416H84.8218C84.1819 80.1416 83.6154 80.6126 83.444 81.2874L82.2174 86.1124H76.9506C76.9402 86.1124 76.9292 86.1118 76.9183 86.1118H73.0019L70.5513 76.4713H71.4802C71.4988 76.4719 71.5185 76.4719 71.5376 76.4713H83.6838C83.6931 76.4719 83.7024 76.4719 83.7117 76.4719C83.721 76.4719 83.7303 76.4719 83.7402 76.4713H86.7064C86.725 76.4719 86.7447 76.4719 86.7639 76.4713H98.91C98.9193 76.4719 98.9286 76.4719 98.9379 76.4719C98.9472 76.4719 98.9565 76.4719 98.9664 76.4713H99.8953L97.4447 86.1124Z" fill="#E67F1E"/>
<path d="M45.0755 72.4869C46.6509 72.4869 47.9328 71.0841 47.9328 69.3589C47.9328 67.6343 46.6509 66.2315 45.0755 66.2315C43.5002 66.2315 42.2183 67.6343 42.2183 69.3589C42.2183 71.0835 43.5002 72.4869 45.0755 72.4869ZM45.0755 68.5326C45.4921 68.5326 45.8309 68.9035 45.8309 69.3589C45.8309 69.8149 45.4921 70.1859 45.0755 70.1859C44.659 70.1859 44.3202 69.8149 44.3202 69.3589C44.3202 68.9035 44.659 68.5326 45.0755 68.5326Z" fill="#E67F1E"/>
<path d="M52.1958 83.4914C54.4116 83.4914 56.2135 81.5181 56.2135 79.093C56.2135 76.6678 54.4116 74.6945 52.1958 74.6945C49.9806 74.6945 48.1781 76.6678 48.1781 79.093C48.1781 81.5181 49.9806 83.4914 52.1958 83.4914ZM52.1958 76.9956C53.2522 76.9956 54.1116 77.9364 54.1116 79.093C54.1116 80.2495 53.2522 81.1903 52.1958 81.1903C51.1394 81.1903 50.28 80.2495 50.28 79.093C50.28 77.9364 51.1394 76.9956 52.1958 76.9956Z" fill="#E67F1E"/>
<path d="M50.4672 54.2384C53.5703 54.164 56.7237 55.9516 60.0654 57.8458C63.4218 59.7477 66.8894 61.7132 70.4457 61.7132C70.5437 61.7132 70.6416 61.7114 70.7396 61.7085C71.7676 61.6767 72.5733 60.767 72.5733 59.6375V51.5735C72.5733 51.0139 72.3719 50.4895 72.0062 50.0976C71.6373 49.7027 71.1507 49.4858 70.6302 49.5044C67.5309 49.5769 64.3737 47.7906 61.032 45.897C57.583 43.9422 54.0147 41.9198 50.3577 42.0343C49.3292 42.066 48.524 42.9757 48.524 44.1052V52.1686C48.524 52.7289 48.7255 53.2532 49.0911 53.6451C49.4606 54.04 49.9467 54.2497 50.4672 54.2384ZM50.626 44.3306H50.6572C53.6956 44.3306 56.7926 46.0851 60.0654 47.9404C63.4218 49.8423 66.8894 51.8078 70.4451 51.8078H70.4714V59.4116C70.461 59.4122 70.4506 59.4122 70.4402 59.4122C67.4018 59.4122 64.3053 57.657 61.032 55.8024C57.6755 53.8998 54.2079 51.9349 50.6522 51.9349H50.626V44.3306Z" fill="#E67F1E"/>
</svg>
