<svg width="139" height="139" viewBox="0 0 139 139" fill="none" xmlns="http://www.w3.org/2000/svg">
<rect width="138.743" height="138.743" rx="28.3204" fill="#FBFBFB"/>
<path d="M23.0047 108.966H25.9104V101.795L28.5952 108.966H30.9401L33.6079 101.812V108.966H36.5135V97.0371H33.0981L29.7846 105.295L26.4371 97.0371H23.0047V108.966ZM47.9658 99.4839H45.0601V104.633C45.0601 105.924 44.3464 106.638 43.2249 106.638C42.1374 106.638 41.4068 105.924 41.4068 104.633V99.4839H38.5181V105.023C38.5181 107.555 39.9964 109.068 42.1884 109.068C43.4628 109.068 44.4823 108.49 45.0601 107.674V108.966H47.9658V99.4839ZM57.7504 106.213C57.6994 102.678 52.5677 103.749 52.5677 102.237C52.5677 101.778 52.9416 101.506 53.6212 101.506C54.4369 101.506 54.9296 101.931 55.0146 102.577H57.6994C57.5125 100.707 56.1531 99.348 53.7062 99.348C51.2253 99.348 49.849 100.673 49.849 102.288C49.849 105.771 55.0146 104.667 55.0146 106.196C55.0146 106.621 54.6238 106.961 53.8761 106.961C53.0775 106.961 52.4828 106.519 52.4148 105.856H49.5431C49.679 107.691 51.3783 109.102 53.9101 109.102C56.289 109.102 57.7504 107.861 57.7504 106.213ZM59.528 108.966H62.4337V103.817C62.4337 102.526 63.1474 101.812 64.2519 101.812C65.3564 101.812 66.07 102.526 66.07 103.817V108.966H68.9587V103.426C68.9587 100.877 67.5144 99.382 65.3564 99.382C64.048 99.382 63.0114 99.9427 62.4337 100.758V96.3914H59.528V108.966ZM73.8835 104.565C73.8835 102.933 74.6822 102.458 76.0585 102.458H76.8572V99.382C75.5828 99.382 74.5462 100.062 73.8835 101.064V99.4839H70.9779V108.966H73.8835V104.565ZM87.5238 104.225C87.5238 101.217 85.3828 99.348 82.596 99.348C79.8263 99.348 77.6683 101.217 77.6683 104.225C77.6683 107.232 79.7753 109.102 82.562 109.102C85.3488 109.102 87.5238 107.232 87.5238 104.225ZM80.6249 104.225C80.6249 102.611 81.5425 101.863 82.596 101.863C83.6156 101.863 84.5671 102.611 84.5671 104.225C84.5671 105.822 83.5986 106.587 82.562 106.587C81.5085 106.587 80.6249 105.822 80.6249 104.225ZM98.343 104.225C98.343 101.217 96.202 99.348 93.4153 99.348C90.6456 99.348 88.4875 101.217 88.4875 104.225C88.4875 107.232 90.5946 109.102 93.3813 109.102C96.168 109.102 98.343 107.232 98.343 104.225ZM91.4442 104.225C91.4442 102.611 92.3618 101.863 93.4153 101.863C94.4348 101.863 95.3864 102.611 95.3864 104.225C95.3864 105.822 94.4178 106.587 93.3813 106.587C92.3278 106.587 91.4442 105.822 91.4442 104.225ZM112.952 108.966H115.84V103.426C115.84 100.877 114.328 99.382 111.983 99.382C110.607 99.382 109.417 100.147 108.788 101.149C108.143 100.011 106.987 99.382 105.56 99.382C104.32 99.382 103.351 99.9088 102.79 100.673V99.4839H99.8846V108.966H102.79V103.817C102.79 102.577 103.504 101.897 104.608 101.897C105.713 101.897 106.427 102.577 106.427 103.817V108.966H109.315V103.817C109.315 102.577 110.029 101.897 111.133 101.897C112.238 101.897 112.952 102.577 112.952 103.817V108.966ZM51.4653 118.467C50.8128 118.739 50.405 119.31 50.405 120.09C50.405 121.349 51.4381 122.111 52.7885 122.111C54.1478 122.111 55.181 121.349 55.181 120.09C55.181 119.319 54.7731 118.748 54.1206 118.467C54.6372 118.205 55.0178 117.706 55.0178 117.008C55.0178 116.066 54.2928 115.232 52.7885 115.232C51.2841 115.232 50.5591 116.057 50.5591 117.008C50.5591 117.724 50.9216 118.187 51.4653 118.467ZM52.7885 118.096C52.2175 118.096 51.8006 117.742 51.8006 117.199C51.8006 116.582 52.1994 116.256 52.7885 116.256C53.3956 116.256 53.7853 116.592 53.7853 117.19C53.7853 117.733 53.3685 118.096 52.7885 118.096ZM52.7885 119.02C53.4681 119.02 53.9394 119.383 53.9394 120.035C53.9394 120.615 53.5135 121.059 52.7885 121.059C52.0635 121.059 51.6285 120.624 51.6285 120.035C51.6285 119.365 52.1269 119.02 52.7885 119.02ZM56.02 115.377V116.465H59.1193L56.6906 121.966H57.9775L60.3881 116.32V115.377H56.02ZM63.4524 121.966H64.7212V115.64H63.4524V121.966ZM66.1741 120.407C66.1741 121.558 66.8175 121.966 67.7781 121.966H68.5756V120.896H67.9866C67.5878 120.896 67.4519 120.751 67.4519 120.416V117.987H68.5756V116.945H67.4519V115.703H66.1741V116.945H65.576V117.987H66.1741V120.407ZM71.6451 117.906C72.2976 117.906 72.8232 118.322 72.8413 118.984H70.4579C70.5576 118.295 71.0379 117.906 71.6451 117.906ZM74.0285 120.389H72.6601C72.497 120.724 72.1979 120.996 71.6541 120.996C71.0198 120.996 70.5123 120.579 70.4488 119.836H74.1191C74.1463 119.673 74.1554 119.51 74.1554 119.347C74.1554 117.851 73.1313 116.863 71.6813 116.863C70.1951 116.863 69.1619 117.869 69.1619 119.455C69.1619 121.032 70.2223 122.047 71.6813 122.047C72.9229 122.047 73.7566 121.313 74.0285 120.389ZM82.1049 121.966H83.3737V119.02C83.3737 117.634 82.5218 116.872 81.3165 116.872C80.5824 116.872 79.9209 117.262 79.5946 117.833C79.2502 117.208 78.6068 116.872 77.8274 116.872C77.2021 116.872 76.6674 117.135 76.3502 117.552V116.945H75.0815V121.966H76.3502V119.192C76.3502 118.395 76.7943 117.978 77.483 117.978C78.1537 117.978 78.5977 118.395 78.5977 119.192V121.966H79.8665V119.192C79.8665 118.395 80.3105 117.978 80.9902 117.978C81.6609 117.978 82.1049 118.395 82.1049 119.192V121.966ZM88.4745 120.534C88.4383 118.694 85.6561 119.265 85.6561 118.35C85.6561 118.06 85.9008 117.869 86.372 117.869C86.8705 117.869 87.1786 118.132 87.2148 118.522H88.4292C88.3567 117.525 87.6227 116.863 86.4083 116.863C85.1667 116.863 84.4236 117.534 84.4236 118.368C84.4236 120.207 87.2602 119.637 87.2602 120.534C87.2602 120.824 86.9883 121.05 86.4898 121.05C85.9823 121.05 85.6289 120.76 85.5836 120.38H84.3058C84.3601 121.313 85.2392 122.047 86.4989 122.047C87.7223 122.047 88.4745 121.395 88.4745 120.534Z" fill="#E67F1E"/>
<path d="M99.5365 67.0427C102.431 67.0427 104.785 63.9378 104.785 60.12C104.785 58.2715 104.239 56.5313 103.248 55.2246L93.3537 42.1716C92.0808 40.4909 90.3867 39.5659 88.585 39.5659C86.7833 39.5659 85.0892 40.4909 83.8163 42.1716L81.6257 45.0612C81.5447 42.9684 80.8389 40.9916 79.6458 39.5933L62.1539 19.0835C60.8267 17.5264 59.1175 16.6685 57.3412 16.6685C55.565 16.6685 53.8558 17.5264 52.5285 19.0835L35.0367 39.5933C33.7684 41.0801 33.0405 43.2188 33.0405 45.4566C33.0405 49.7842 35.709 53.3043 38.9896 53.3043H50.3982V56.8472C50.3982 59.4255 50.1378 61.993 49.624 64.4797L47.1835 76.281C47.0134 77.1053 46.9266 77.9555 46.9266 78.8104C46.9266 81.3428 47.6788 83.6432 48.8985 85.3605H37.6692V88.4135H54.2076H60.476H100.157V85.3605H97.4293C97.6862 84.6568 97.8424 83.8783 97.8424 83.0464C97.8424 82.3625 97.7452 81.6924 97.552 81.0528C96.2085 76.626 95.5281 71.9641 95.5281 67.1953V67.0427H99.5365ZM69.7369 32.0586L74.9014 38.1142C74.2522 39.0194 73.3485 39.5659 72.3845 39.5659C70.4706 39.5659 68.913 37.5112 68.913 34.9864C68.913 33.9041 69.2162 32.8768 69.7369 32.0586ZM48.0387 28.4317C48.0503 28.5828 48.0838 28.7278 48.0838 28.8805C48.0838 31.4053 46.5263 33.4599 44.6123 33.4599C44.3577 33.4599 44.1078 33.4019 43.8613 33.3302L48.0387 28.4317ZM38.5626 50.2192C36.7585 49.9399 35.3549 47.9112 35.3549 45.4566C35.3549 44.0889 35.7992 42.7822 36.5745 41.8724L41.9114 35.6153C42.7411 36.1954 43.6669 36.5129 44.6123 36.5129C47.8026 36.5129 50.3982 33.089 50.3982 28.8805C50.3982 27.9356 50.2582 27.0029 50.0024 26.1297L54.0664 21.364C55.8728 19.2437 58.8109 19.2437 60.616 21.364L67.9988 30.0207C67.1055 31.3961 66.5986 33.1516 66.5986 34.9864C66.5986 39.1949 69.1942 42.6189 72.3845 42.6189C74.0138 42.6189 75.5494 41.6923 76.6337 40.1444L78.1079 41.8739C78.8832 42.7822 79.3276 44.0904 79.3276 45.4566C79.3276 48.0791 77.7237 50.2162 75.7415 50.2513C72.0547 50.2223 68.8378 48.8637 65.4322 47.4227C63.9302 46.7877 62.4039 46.1481 60.807 45.6016C60.7781 41.4267 58.1987 38.0394 55.0269 38.0394C52.1606 38.0394 49.7907 40.8115 49.337 44.4262C43.2561 45.4261 39.707 48.9034 38.5626 50.2192ZM64.5377 50.2513H64.2843V50.146C64.3688 50.1811 64.4532 50.2162 64.5377 50.2513ZM58.4394 44.8979C56.662 44.443 54.7792 44.1453 52.7125 44.1453C52.3862 44.1453 52.0761 44.1637 51.7613 44.1774C52.2335 42.3883 53.511 41.0924 55.0269 41.0924C56.7407 41.0924 58.1582 42.741 58.4394 44.8979ZM42.6949 50.2513C44.4491 49.0332 47.0134 47.7707 50.3982 47.3525V50.2513H42.6949ZM60.4749 85.3605H54.2076C51.4686 85.3605 49.241 82.422 49.241 78.8104C49.241 78.2272 49.3 77.6472 49.4157 77.0854L51.8562 65.2826C52.4244 62.5365 52.7125 59.6987 52.7125 56.8488V47.1983C56.169 47.1983 59.1534 48.0989 61.9699 49.198V56.8472C61.9699 59.6972 62.2581 62.5365 62.8263 65.2811L65.2667 77.0854C65.3825 77.6472 65.4415 78.2272 65.4415 78.8104C65.4415 82.422 63.2139 85.3605 60.4749 85.3605ZM65.784 85.3605C67.0037 83.6432 67.7558 81.3428 67.7558 78.8104C67.7558 77.9555 67.669 77.1053 67.4989 76.284L65.0584 64.4812C64.5447 61.9946 64.2843 59.427 64.2843 56.8488V53.3043H75.377L73.9213 55.2246C72.9307 56.5313 72.3845 58.2715 72.3845 60.12C72.3845 63.9378 74.7394 67.0427 77.6335 67.0427H81.6419V67.1953C81.6419 71.9641 80.9615 76.6275 79.6169 81.0558C79.4248 81.6939 79.3276 82.3625 79.3276 83.0464C79.3276 83.8783 79.4838 84.6568 79.7407 85.3605H65.784ZM93.2137 67.0427V67.1953C93.2137 72.3548 93.9508 77.3984 95.4019 82.1854C95.4852 82.4617 95.5281 82.7518 95.5281 83.0464C95.5281 84.3225 94.7412 85.3605 93.7738 85.3605H83.3962C82.4288 85.3605 81.6419 84.3225 81.6419 83.0464C81.6419 82.7518 81.6848 82.4602 81.7669 82.187C83.2192 77.3968 83.9563 72.3533 83.9563 67.1953V67.0427H88.585V63.9897H77.6335C76.0158 63.9897 74.6989 62.2525 74.6989 60.12C74.6989 59.0866 75.0044 58.1158 75.5587 57.383L85.4525 44.33C87.1258 42.1243 90.0442 42.1243 91.7175 44.33L101.611 57.383C102.166 58.1142 102.471 59.0866 102.471 60.12C102.471 62.2525 101.154 63.9897 99.5365 63.9897H90.8994V67.0427H93.2137Z" fill="#E67F1E"/>
<path d="M91.0568 71.4741L88.754 71.7717C88.9936 74.9835 89.4912 78.1708 90.2306 81.2436L92.4362 80.3201C91.7442 77.4503 91.2801 74.4751 91.0568 71.4741Z" fill="#E67F1E"/>
<path d="M104.785 85.3605H102.471V88.4135H104.785V85.3605Z" fill="#E67F1E"/>
<path d="M35.3548 85.3605H33.0404V88.4135H35.3548V85.3605Z" fill="#E67F1E"/>
<path d="M39.9834 44.1454H37.6691V47.1983H39.9834V44.1454Z" fill="#E67F1E"/>
<path d="M57.3411 25.8275H55.0267V28.8805H57.3411V25.8275Z" fill="#E67F1E"/>
<path d="M63.1271 34.9864H60.8127V38.0394H63.1271V34.9864Z" fill="#E67F1E"/>
<path d="M77.0133 44.1454H74.699V47.1983H77.0133V44.1454Z" fill="#E67F1E"/>
<path d="M79.3274 57.8837H77.0131V60.9367H79.3274V57.8837Z" fill="#E67F1E"/>
<path d="M86.2709 53.3043H83.9565V56.3572H86.2709V53.3043Z" fill="#E67F1E"/>
<path d="M90.8994 57.8837H88.5851V60.9367H90.8994V57.8837Z" fill="#E67F1E"/>
<path d="M97.8422 54.8307H95.5278V57.8837H97.8422V54.8307Z" fill="#E67F1E"/>
<path d="M89.742 45.6718H87.4276V48.7248H89.742V45.6718Z" fill="#E67F1E"/>
</svg>
