<svg width="139" height="139" viewBox="0 0 139 139" fill="none" xmlns="http://www.w3.org/2000/svg">
<rect width="138.743" height="138.743" rx="28.3204" fill="#FBFBFB"/>
<path d="M58.315 99.32C58.315 100.255 57.8052 100.815 56.7177 100.815H54.9166V97.8586H56.7177C57.8052 97.8586 58.315 98.4364 58.315 99.32ZM52.0109 95.4457V107.374H54.9166V102.871H55.6133L58.0941 107.374H61.3736L58.6209 102.65C60.456 102.107 61.2717 100.696 61.2717 99.201C61.2717 97.128 59.8103 95.4457 56.8877 95.4457H52.0109ZM63.0957 107.374H66.0013V97.8926H63.0957V107.374ZM64.557 96.9071C65.5765 96.9071 66.2732 96.2104 66.2732 95.3438C66.2732 94.4602 65.5765 93.7635 64.557 93.7635C63.5205 93.7635 62.8238 94.4602 62.8238 95.3438C62.8238 96.2104 63.5205 96.9071 64.557 96.9071ZM67.5293 102.633C67.5293 105.641 69.5004 107.51 72.2871 107.51C74.666 107.51 76.3483 106.134 76.8411 103.942H73.7485C73.4936 104.639 73.0348 105.029 72.2362 105.029C71.1996 105.029 70.486 104.214 70.486 102.633C70.486 101.053 71.1996 100.238 72.2362 100.238C73.0348 100.238 73.5106 100.662 73.7485 101.325H76.8411C76.3483 99.0651 74.666 97.7567 72.2871 97.7567C69.5004 97.7567 67.5293 99.6428 67.5293 102.633ZM82.5754 100.085C83.544 100.085 84.3596 100.679 84.3596 101.716H80.7232C80.8932 100.662 81.6238 100.085 82.5754 100.085ZM87.1123 104.231H84.0197C83.7818 104.74 83.3231 105.148 82.5074 105.148C81.5729 105.148 80.8082 104.571 80.7062 103.33H87.2822C87.3162 103.041 87.3332 102.752 87.3332 102.481C87.3332 99.5918 85.3791 97.7567 82.6094 97.7567C79.7887 97.7567 77.8176 99.6258 77.8176 102.633C77.8176 105.641 79.8227 107.51 82.6094 107.51C84.9713 107.51 86.6535 106.083 87.1123 104.231ZM50.5969 120.284H55.0738V119.232H52.4003C53.4516 118.344 54.9288 117.148 54.9288 115.616C54.9288 114.466 54.2128 113.623 52.79 113.623C51.6028 113.623 50.6331 114.321 50.5878 115.834H51.8203C51.8294 115.136 52.1647 114.701 52.7719 114.701C53.3972 114.701 53.66 115.1 53.66 115.689C53.66 116.903 52.0922 118.072 50.5969 119.341V120.284ZM55.7101 113.786V114.873H58.8095L56.3808 120.374H57.6676L60.0783 114.728V113.786H55.7101ZM63.1426 120.374H64.4114V114.049H63.1426V120.374ZM65.8643 118.816C65.8643 119.966 66.5077 120.374 67.4683 120.374H68.2658V119.305H67.6768C67.278 119.305 67.1421 119.16 67.1421 118.825V116.396H68.2658V115.354H67.1421V114.112H65.8643V115.354H65.2661V116.396H65.8643V118.816ZM71.3353 116.314C71.9878 116.314 72.5134 116.731 72.5315 117.393H70.1481C70.2478 116.704 70.7281 116.314 71.3353 116.314ZM73.7187 118.797H72.3503C72.1871 119.133 71.8881 119.405 71.3443 119.405C70.7099 119.405 70.2024 118.988 70.139 118.245H73.8093C73.8365 118.081 73.8456 117.918 73.8456 117.755C73.8456 116.26 72.8215 115.272 71.3715 115.272C69.8853 115.272 68.8521 116.278 68.8521 117.864C68.8521 119.441 69.9124 120.456 71.3715 120.456C72.6131 120.456 73.4468 119.722 73.7187 118.797ZM81.7951 120.374H83.0639V117.429C83.0639 116.042 82.212 115.281 81.0067 115.281C80.2726 115.281 79.611 115.671 79.2848 116.242C78.9404 115.616 78.297 115.281 77.5176 115.281C76.8923 115.281 76.3576 115.544 76.0404 115.961V115.354H74.7717V120.374H76.0404V117.601C76.0404 116.804 76.4845 116.387 77.1732 116.387C77.8439 116.387 78.2879 116.804 78.2879 117.601V120.374H79.5567V117.601C79.5567 116.804 80.0007 116.387 80.6804 116.387C81.351 116.387 81.7951 116.804 81.7951 117.601V120.374ZM88.1647 118.942C88.1285 117.103 85.3463 117.674 85.3463 116.758C85.3463 116.468 85.591 116.278 86.0622 116.278C86.5606 116.278 86.8688 116.541 86.905 116.931H88.1194C88.0469 115.934 87.3128 115.272 86.0985 115.272C84.8569 115.272 84.1138 115.943 84.1138 116.776C84.1138 118.616 86.9503 118.045 86.9503 118.942C86.9503 119.232 86.6785 119.459 86.18 119.459C85.6725 119.459 85.3191 119.169 85.2738 118.788H83.996C84.0503 119.722 84.9294 120.456 86.1891 120.456C87.4125 120.456 88.1647 119.803 88.1647 118.942Z" fill="#E67F1E"/>
<path d="M103.59 56.1005V52.8803C103.588 51.23 102.251 49.8926 100.6 49.8909C100.27 49.8905 100.003 49.6231 100.002 49.293V48.0972C100.001 46.4469 98.6633 45.1095 97.0129 45.1078H95.4225C95.1461 45.1081 94.9071 44.9158 94.8479 44.6459L94.278 42.4009C94.131 41.7801 93.7388 41.2453 93.1909 40.9185C92.647 40.5924 91.9964 40.4947 91.3808 40.6469C90.7525 40.8061 90.0863 40.6997 89.5387 40.3529C88.991 40.006 88.6104 39.4491 88.4859 38.813L88.4321 38.5549L103.316 27.6679C104.085 27.1082 104.598 26.2653 104.743 25.3259C104.888 24.3865 104.653 23.4278 104.089 22.6624C103.529 21.8935 102.686 21.3797 101.746 21.2346C100.807 21.0895 99.8475 21.3252 99.082 21.8895L83.3682 33.3768C82.862 33.2356 82.3399 33.1593 81.8144 33.1501H79.925C79.6508 33.1471 79.3778 33.1129 79.1113 33.0482L89.9291 20.0112C90.7505 19.0277 90.9841 17.6804 90.5416 16.4779C90.099 15.2753 89.0478 14.4009 87.7847 14.1847C86.5217 13.9685 85.2393 14.4434 84.4219 15.4302L70.3195 32.4253C69.3474 32.6767 68.3142 32.5034 67.4775 31.9485C66.3071 31.1735 64.9348 30.7597 63.5312 30.7585H63.0167C61.8195 30.7548 60.7005 31.3536 60.0395 32.3519C59.764 32.7598 59.3375 33.0412 58.854 33.1338C58.3706 33.2264 57.8702 33.1226 57.4635 32.8453C56.36 32.1715 54.9417 32.3223 54.0047 33.2131L52.9281 34.2898C52.5688 34.6542 52.268 35.0722 52.0364 35.5288C51.6609 36.2657 50.9058 36.7319 50.0786 36.7374C47.9334 36.7402 46.1951 38.4785 46.1924 40.6236C46.193 40.7187 46.1383 40.8053 46.0523 40.8455L43.6262 42.0582C42.2657 42.7484 41.4065 44.1426 41.4016 45.6682L39.9565 46.6357C38.6224 47.5224 37.821 49.0183 37.8219 50.6201V51.0866C36.5015 51.0879 35.4316 52.1579 35.4302 53.4782V55.8698H35.1465C34.3543 55.87 33.6293 56.3146 33.2699 57.0204C32.9104 57.7263 32.9774 58.5742 33.4433 59.2149L33.8281 60.1561C37.2822 68.5488 43.2794 75.6481 50.9766 80.4563V82.3119C50.9787 84.2175 52.5228 85.762 54.4284 85.7644H83.3974C85.3032 85.7622 86.8476 84.2178 86.85 82.3119V80.4557C94.5455 75.6483 100.542 68.5507 103.996 60.1602L104.383 59.2149C104.821 58.6126 104.908 57.824 104.613 57.1404C104.408 56.6819 104.045 56.3126 103.59 56.1005ZM100.5 23.815C100.75 23.6278 101.065 23.5492 101.373 23.5972C101.686 23.6432 101.967 23.8128 102.153 24.0678C102.307 24.2737 102.391 24.5228 102.394 24.7795C102.391 25.1593 102.209 25.5153 101.902 25.7394L71.6348 47.8785L70.4734 48.2654C70.236 48.3448 69.9791 48.3448 69.7417 48.2654L67.9901 47.6815C67.9548 47.6698 67.9184 47.6694 67.8829 47.6589L100.5 23.815ZM79.9252 35.5415H80.4069L71.8548 41.7936L77.4804 35.0139C78.2489 35.3605 79.0821 35.5404 79.9252 35.5415ZM86.2655 16.9539C86.4655 16.7101 86.7548 16.5565 87.0689 16.5277C87.5485 16.4862 88.0063 16.7367 88.23 17.163C88.4536 17.5893 88.3997 18.1083 88.0929 18.4795L63.9559 47.5678L62.4569 48.6636C62.4442 48.652 62.4275 48.6468 62.4152 48.6345C61.9579 48.1761 61.3837 47.8519 60.7549 47.6969L86.2655 16.9539ZM37.8219 53.4782C39.1422 53.477 40.2121 52.4069 40.2135 51.0866V50.6201C40.2136 49.8173 40.6158 49.068 41.2849 48.6244L42.7376 47.6516C43.4011 47.2047 43.7995 46.4577 43.8008 45.6577C43.8084 45.0393 44.1567 44.4756 44.7063 44.1922L47.1114 42.9895C48.0114 42.5443 48.5819 41.6278 48.5839 40.6235C48.5863 39.799 49.2541 39.1313 50.0786 39.1287C51.8025 39.1196 53.378 38.1517 54.1651 36.618C54.2834 36.3839 54.4363 36.1689 54.6187 35.9804L55.6953 34.9038C55.8283 34.7963 56.012 34.7767 56.1648 34.8536C57.0981 35.4772 58.2411 35.7037 59.3415 35.483C60.442 35.2623 61.4093 34.6125 62.0298 33.6772C62.2491 33.3467 62.6199 33.1485 63.0166 33.1501H63.531C64.4637 33.1511 65.3757 33.4257 66.1538 33.9401C66.8125 34.3769 67.5518 34.6778 68.3282 34.825L57.1928 48.2445C56.9938 48.2615 56.794 48.2256 56.6132 48.1407C55.2475 47.457 53.5976 47.725 52.5185 48.8057L51.3255 49.9986C50.862 50.4661 50.8637 51.2204 51.3292 51.686C51.7947 52.1515 52.5489 52.1532 53.0165 51.6896L54.2094 50.4967C54.5624 50.1438 55.1019 50.0572 55.5477 50.2819C56.3886 50.7057 57.3643 50.7751 58.2568 50.4745L59.5407 50.0466C59.9562 49.9059 60.4154 50.0142 60.7242 50.3257C61.9216 51.5181 63.7926 51.7036 65.2008 50.7695L66.2273 50.0858C66.5242 49.8882 66.8954 49.8385 67.2338 49.951L68.9855 50.5349C69.7139 50.7767 70.5008 50.7767 71.2292 50.5349L72.982 49.951C73.3205 49.8402 73.6912 49.8899 73.9885 50.0858L76.6189 51.8393C77.1682 52.2002 77.9059 52.05 78.2705 51.5032C78.6351 50.9563 78.4899 50.2177 77.9455 49.8494L75.3538 48.1213L86.3678 40.0652C87.0766 41.8994 88.8397 43.1096 90.806 43.1114C91.1929 43.1097 91.5784 43.064 91.9551 42.9753L92.525 45.2187C92.8435 46.5597 94.0437 47.5047 95.4222 47.4998H97.0127C97.3427 47.5003 97.6102 47.7676 97.6106 48.0978V49.2935C97.6123 50.9438 98.9497 52.2812 100.6 52.2829C100.93 52.2833 101.198 52.5508 101.198 52.8809V55.8703H37.8219V53.4782ZM101.782 59.2545C98.47 67.2809 92.6982 74.0504 85.2964 78.5896H82.0668C81.4063 78.5896 80.871 79.1249 80.871 79.7853C80.871 80.4458 81.4065 80.9811 82.0668 80.9811H84.4584V82.3117C84.4578 82.8975 83.9831 83.3721 83.3974 83.3727H54.4284C53.843 83.3718 53.3686 82.8972 53.3681 82.3117V80.9811H67.7174C68.3779 80.9811 68.9132 80.4458 68.9132 79.7853C68.9132 79.1249 68.3779 78.5896 67.7174 78.5896H52.5283C45.1229 74.0529 39.35 67.2811 36.0422 59.251L35.6369 58.2613H102.188L101.782 59.2545Z" fill="#E67F1E"/>
<path d="M85.6586 74.9999C85.8689 74.9999 86.0753 74.9444 86.2571 74.8387C91.143 71.8423 95.0543 67.4926 97.5166 62.317C97.6839 61.9239 97.6288 61.4716 97.3721 61.1302C97.1154 60.7889 96.6961 60.6103 96.2721 60.6619C95.848 60.7135 95.4838 60.9874 95.3165 61.3803C93.0637 66.0998 89.4885 70.0632 85.0256 72.7893L85.021 72.7923C84.5692 73.0756 84.3599 73.6241 84.5079 74.1364C84.6558 74.6487 85.1253 75.001 85.6586 74.9999Z" fill="#E67F1E"/>
</svg>
