<svg width="139" height="139" viewBox="0 0 139 139" fill="none" xmlns="http://www.w3.org/2000/svg">
<rect width="138.743" height="138.743" rx="28.3204" fill="#FEC54B"/>
<path d="M104.348 53.0258C104.29 52.6815 104.123 52.3697 103.875 52.1436C101.554 50.0269 101.163 47.6928 100.848 45.8175L100.807 45.5732C100.698 44.9331 100.221 44.4399 99.6237 44.3492C99.4174 44.318 99.1991 44.302 98.9747 44.302C97.6412 44.302 95.7623 44.9079 94.5711 46.2613C94.3679 46.4923 94.2375 46.7867 94.1985 47.1023C94.0983 47.9143 94.0468 48.6574 94.0014 49.3131C93.8297 51.7837 93.6779 52.0457 92.98 52.2839C92.5425 52.4331 92.2006 52.8038 92.0645 53.2761C91.4072 55.5581 90.5349 57.7418 89.4792 59.802C88.9578 58.7286 88.3816 57.7631 87.8453 56.8646C86.5337 54.6673 85.4976 52.9315 85.8516 50.7802C86.9986 43.8078 86.4164 38.5556 84.1206 35.1691C82.8421 33.2832 81.0207 31.9975 78.8073 31.3969C79.2478 27.6901 81.6367 26.0095 82.9591 25.6274C83.7066 25.4115 84.1503 24.5828 83.9499 23.7767C83.7495 22.9707 82.9811 22.4919 82.2338 22.7083C79.5034 23.4972 76.5869 26.3933 76.0299 31.0191C73.7935 31.0123 71.7624 31.7488 70.0909 33.1888C67.0367 35.8202 65.1914 40.7101 64.6061 47.7224C64.4299 49.8325 63.164 51.0637 61.4117 52.7674C59.9815 54.1581 58.3882 55.7108 57.112 58.0582C55.5222 57.3601 53.8169 56.9072 52.0361 56.7433C52.5409 53.1846 54.8621 51.5596 56.1588 51.185C56.9064 50.9691 57.35 50.1405 57.1496 49.3345C56.9493 48.5284 56.1808 48.0497 55.4335 48.2661C54.7294 48.4695 54.0132 48.8147 53.3278 49.2919C53.009 47.5952 52.2378 46.0038 51.07 44.7447C49.5053 43.0575 47.4248 42.1284 45.212 42.1284C44.4876 42.1284 43.7663 42.2304 43.0677 42.4313C42.5833 42.5708 42.2048 42.9789 42.0755 43.5013C41.3142 46.5756 42.1362 49.882 44.2207 52.1302C45.6712 53.6942 47.5655 54.6054 49.5974 54.7303C49.4202 55.3556 49.2885 56.021 49.212 56.7267C40.181 57.4583 33.0405 65.6153 33.0405 75.5372C33.0405 85.9388 40.8883 94.4012 50.5344 94.4012C54.1194 94.4012 57.5343 93.2523 60.4578 91.0728C60.9182 91.2907 61.3802 91.5004 61.8443 91.6977C66.0616 93.4915 70.3237 94.4011 74.5119 94.4011C81.2487 94.4011 87.5011 92.0276 92.5934 87.537C97.9158 82.8434 101.839 75.8983 103.937 67.4527C104.622 64.6981 105.226 58.2078 104.348 53.0258ZM63.2888 55.0118C65.1736 53.179 67.1226 51.2837 67.3974 47.9935C67.9115 41.8339 69.4063 37.6472 71.8404 35.55C73.2854 34.3051 75.0715 33.8251 77.1495 34.1246C79.2018 34.42 80.7861 35.3714 81.8582 36.9529C83.6855 39.6482 84.1007 44.1229 83.0921 50.2525C82.546 53.5708 84.042 56.0768 85.4886 58.5004C86.2994 59.8587 87.134 61.2592 87.7015 62.8893C82.9788 70.2434 75.8126 75.6064 67.9272 77.5703C67.9945 76.8961 68.0287 76.2169 68.0287 75.5372C68.0287 68.7212 64.6585 62.7381 59.6209 59.4228C60.6694 57.5621 61.9969 56.2681 63.2888 55.0118ZM46.2021 49.9932C45.0249 48.7236 44.4562 46.9435 44.628 45.1835C44.8217 45.1614 45.0163 45.1501 45.2117 45.1501C46.6759 45.1501 48.0526 45.7649 49.0879 46.8812C50.2652 48.1508 50.834 49.9311 50.6621 51.6909C50.4685 51.713 50.2738 51.7242 50.0788 51.7242H50.0786C48.614 51.7243 47.2373 51.1095 46.2021 49.9932ZM50.5344 91.3792C42.4335 91.3792 35.8431 84.2726 35.8431 75.5372C35.8431 66.8018 42.4335 59.6952 50.5344 59.6952C58.6354 59.6952 65.226 66.8018 65.226 75.5372C65.226 76.4082 65.16 77.2776 65.0295 78.133C64.1281 78.2584 63.2205 78.338 62.3087 78.3716C62.5007 77.4449 62.601 76.4979 62.601 75.5372C62.601 73.8355 62.2974 72.1743 61.6986 70.6C61.405 69.8282 60.5868 69.4586 59.8704 69.7754C59.1544 70.0921 58.812 70.9747 59.1057 71.7468C59.5654 72.9555 59.7985 74.2306 59.7985 75.5372C59.7985 76.4873 59.6736 77.4207 59.4295 78.3244C57.424 78.1853 55.4156 77.8279 53.4367 77.2561C53.0337 77.1396 52.6032 77.223 52.2629 77.4835C51.0174 78.437 49.7622 79.6363 49.0178 81.9357C48.826 82.5283 48.9938 83.1871 49.4396 83.5909C52.0137 85.9225 54.7032 87.8991 57.4735 89.5036C55.3529 90.7352 52.9918 91.3792 50.5344 91.3792ZM101.23 66.6708C97.3854 82.1424 87.3974 91.3792 74.5121 91.3792C66.9898 91.3792 59.0495 88.0536 52.0508 81.993C52.4218 81.275 52.8804 80.7807 53.3732 80.3588C56.0045 81.0589 58.6804 81.4134 61.3376 81.4134C68.8581 81.4134 76.1095 78.6499 82.3079 73.4216C85.4592 70.7636 88.1904 67.5607 90.3782 64.0093C90.4043 63.9712 90.4288 63.9319 90.4514 63.8914C92.1784 61.066 93.5618 58.0218 94.5373 54.8562C96.5012 53.7906 96.651 51.6323 96.7963 49.5387C96.8295 49.0601 96.8636 48.5693 96.9156 48.0515C97.2883 47.7605 97.7823 47.5301 98.2775 47.4116C98.6509 49.3329 99.377 51.799 101.672 54.0762C102.321 58.5279 101.849 64.1781 101.23 66.6708Z" fill="black"/>
<path d="M78.2317 37.2341C77.5185 36.9119 76.6969 37.2738 76.3976 38.0434C76.0983 38.8129 76.4342 39.6984 77.148 40.0211C78.1674 40.482 78.7303 43.7988 77.8338 49.2464C77.6986 50.0681 78.2067 50.8525 78.9688 50.9983C79.0516 51.0142 79.134 51.0219 79.2153 51.0219C79.8819 51.0219 80.4729 50.5069 80.5934 49.7747C81.3952 44.9032 81.6363 38.7732 78.2317 37.2341Z" fill="black"/>
<path d="M87.4941 80.4824C87.0299 79.8147 86.15 79.6807 85.5309 80.1816C85.5304 80.1819 85.5243 80.1867 85.5239 80.187C84.8998 80.6798 84.7668 81.6227 85.2232 82.296C85.4972 82.7 85.9234 82.9138 86.3554 82.9138C86.6433 82.9138 86.9337 82.8189 87.1834 82.6222L87.2155 82.5967C87.8346 82.0959 87.9585 81.1502 87.4941 80.4824Z" fill="black"/>
<path d="M84.2783 82.9259C83.9256 82.1831 83.0815 81.8889 82.3925 82.2689C77.5964 84.9144 73.5499 84.8097 73.4902 84.8068C72.72 84.778 72.0692 85.4253 72.0389 86.2578C72.0087 87.0916 72.6109 87.7941 73.3843 87.8267C73.4057 87.8276 73.4811 87.8304 73.6063 87.8304C74.6077 87.8304 78.7817 87.6549 83.6688 84.9591C84.3578 84.5794 84.6306 83.6689 84.2783 82.9259Z" fill="black"/>
<path d="M59.1098 66.3835L59.0637 66.3337C58.5151 65.7454 57.6279 65.7477 57.082 66.3394C56.5362 66.9311 56.5386 67.8879 57.0873 68.4764L57.1174 68.5089C57.3915 68.8078 57.7525 68.9572 58.1136 68.9572C58.4697 68.9572 58.826 68.8117 59.0991 68.5204C59.6493 67.9337 59.654 66.9768 59.1098 66.3835Z" fill="black"/>
<path d="M45.7384 116.841H48.644V112.016H52.2804V109.756H48.644V107.241H53.5038V104.913H45.7384V116.841ZM57.9367 112.44C57.9367 110.809 58.7353 110.333 60.1117 110.333H60.9103V107.258C59.6359 107.258 58.5994 107.937 57.9367 108.94V107.36H55.031V116.841H57.9367V112.44ZM71.6619 107.36H68.7562V112.508C68.7562 113.8 68.0425 114.513 66.921 114.513C65.8335 114.513 65.1029 113.8 65.1029 112.508V107.36H62.2142V112.899C62.2142 115.431 63.6925 116.943 65.8845 116.943C67.1589 116.943 68.1785 116.366 68.7562 115.55V116.841H71.6619V107.36ZM73.749 116.841H76.6547V107.36H73.749V116.841ZM75.2103 106.374C76.2299 106.374 76.9265 105.677 76.9265 104.811C76.9265 103.927 76.2299 103.231 75.2103 103.231C74.1738 103.231 73.4771 103.927 73.4771 104.811C73.4771 105.677 74.1738 106.374 75.2103 106.374ZM79.2192 113.545C79.2192 116.009 80.5955 116.841 82.5666 116.841H84.045V114.377H83.0084C82.3627 114.377 82.1248 114.14 82.1248 113.579V109.773H84.028V107.36H82.1248V105.049H79.2192V107.36H78.0637V109.773H79.2192V113.545ZM93.3609 114.089C93.31 110.554 88.1783 111.625 88.1783 110.112C88.1783 109.654 88.5521 109.382 89.2318 109.382C90.0475 109.382 90.5402 109.807 90.6252 110.452H93.31C93.1231 108.583 91.7637 107.224 89.3168 107.224C86.8359 107.224 85.4596 108.549 85.4596 110.163C85.4596 113.647 90.6252 112.542 90.6252 114.072C90.6252 114.496 90.2344 114.836 89.4867 114.836C88.6881 114.836 88.0934 114.394 88.0254 113.732H85.1537C85.2896 115.567 86.9889 116.977 89.5207 116.977C91.8996 116.977 93.3609 115.737 93.3609 114.089ZM51.4653 126.343C50.8128 126.615 50.405 127.186 50.405 127.965C50.405 129.225 51.4381 129.986 52.7884 129.986C54.1478 129.986 55.1809 129.225 55.1809 127.965C55.1809 127.195 54.7731 126.624 54.1206 126.343C54.6371 126.08 55.0178 125.582 55.0178 124.884C55.0178 123.942 54.2928 123.108 52.7884 123.108C51.284 123.108 50.559 123.933 50.559 124.884C50.559 125.6 50.9215 126.062 51.4653 126.343ZM52.7884 125.972C52.2175 125.972 51.8006 125.618 51.8006 125.074C51.8006 124.458 52.1993 124.132 52.7884 124.132C53.3956 124.132 53.7853 124.467 53.7853 125.065C53.7853 125.609 53.3684 125.972 52.7884 125.972ZM52.7884 126.896C53.4681 126.896 53.9393 127.259 53.9393 127.911C53.9393 128.491 53.5134 128.935 52.7884 128.935C52.0634 128.935 51.6284 128.5 51.6284 127.911C51.6284 127.24 52.1268 126.896 52.7884 126.896ZM56.0199 123.253V124.34H59.1193L56.6905 129.841H57.9774L60.388 124.195V123.253H56.0199ZM63.4524 129.841H64.7211V123.516H63.4524V129.841ZM66.174 128.283C66.174 129.434 66.8175 129.841 67.7781 129.841H68.5756V128.772H67.9865C67.5878 128.772 67.4518 128.627 67.4518 128.292V125.863H68.5756V124.821H67.4518V123.579H66.174V124.821H65.5759V125.863H66.174V128.283ZM71.645 125.781C72.2975 125.781 72.8231 126.198 72.8413 126.86H70.4578C70.5575 126.171 71.0378 125.781 71.645 125.781ZM74.0285 128.264H72.66C72.4969 128.6 72.1978 128.872 71.6541 128.872C71.0197 128.872 70.5122 128.455 70.4488 127.712H74.1191C74.1463 127.549 74.1553 127.385 74.1553 127.222C74.1553 125.727 73.1313 124.739 71.6813 124.739C70.195 124.739 69.1619 125.745 69.1619 127.331C69.1619 128.908 70.2222 129.923 71.6813 129.923C72.9228 129.923 73.7566 129.189 74.0285 128.264ZM82.1049 129.841H83.3736V126.896C83.3736 125.509 82.5217 124.748 81.3164 124.748C80.5824 124.748 79.9208 125.138 79.5945 125.709C79.2502 125.084 78.6067 124.748 77.8274 124.748C77.202 124.748 76.6674 125.011 76.3502 125.428V124.821H75.0814V129.841H76.3502V127.068C76.3502 126.271 76.7942 125.854 77.483 125.854C78.1536 125.854 78.5977 126.271 78.5977 127.068V129.841H79.8664V127.068C79.8664 126.271 80.3105 125.854 80.9902 125.854C81.6608 125.854 82.1049 126.271 82.1049 127.068V129.841ZM88.4745 128.409C88.4382 126.57 85.656 127.141 85.656 126.225C85.656 125.935 85.9007 125.745 86.372 125.745C86.8704 125.745 87.1785 126.008 87.2148 126.398H88.4292C88.3567 125.401 87.6226 124.739 86.4082 124.739C85.1666 124.739 84.4235 125.41 84.4235 126.244C84.4235 128.083 87.2601 127.512 87.2601 128.409C87.2601 128.699 86.9882 128.926 86.4898 128.926C85.9823 128.926 85.6288 128.636 85.5835 128.255H84.3057C84.3601 129.189 85.2391 129.923 86.4988 129.923C87.7223 129.923 88.4745 129.27 88.4745 128.409Z" fill="black"/>
</svg>
