<svg width="139" height="139" viewBox="0 0 139 139" fill="none" xmlns="http://www.w3.org/2000/svg">
<rect width="138.743" height="138.743" rx="28.3204" fill="#FBFBFB"/>
<path d="M104.314 54.4657C104.636 51.5708 103.146 48.1898 100.109 46.0328C104.433 42.4304 106.758 36.6026 102.621 31.4646C105.12 26.4101 104.336 19.7495 100.778 15.575C96.7441 10.6827 89.9771 8.68801 83.9916 8.79704C75.8636 8.91399 68.4896 12.4839 60.4394 12.7874C52.1211 12.8969 36.836 15.6158 38.1936 29.3703C38.3651 30.562 38.7059 31.6545 39.2158 32.6601C37.9276 34.8362 37.8144 36.6566 37.9963 38.3132C31.1672 42.653 31.7283 50.4552 37.6439 55.3162C37.919 56.8602 38.5831 58.3858 39.5631 59.7786C35.9361 65.1409 38.7875 70.9755 43.4029 74.298C46.8513 76.7267 50.8472 77.7939 54.3218 78.6034C65.297 81.2352 77.584 81.1293 88.3746 78.6034C91.8494 77.7937 95.8453 76.7265 99.2935 74.298C104.125 70.8257 106.969 64.6083 102.679 59.1815C103.606 57.693 104.178 56.0777 104.314 54.4657ZM45.2452 35.4603C42.7936 33.9915 40.6146 31.9336 40.2634 28.9402C39.8845 26.3048 40.6339 23.5273 42.2191 21.6915C44.606 18.9271 48.8408 15.7039 60.498 15.3123C64.4935 15.1781 68.3935 14.2241 72.1652 13.3017C81.2799 10.7183 92.653 9.64215 99.2942 17.3623C103.435 22.1551 102.642 30.2786 97.815 33.9538C88.196 42.1196 69.9107 41.3908 58.1911 39.6726C54.9297 39.265 52.121 38.5953 49.6046 37.6255C49.0525 37.4124 48.4612 37.7785 48.2842 38.4426C48.1072 39.1067 48.4114 39.8177 48.9637 40.0305C51.6195 41.0539 54.5667 41.7587 57.9738 42.185C70.6258 43.9762 88.6544 44.6494 98.9636 36.0678C99.8766 35.351 100.685 34.502 101.375 33.5514C102.345 34.8277 102.775 36.2173 102.651 37.6927C101.779 44.7113 92.9737 47.4224 87.9754 48.4764C77.4389 50.9417 65.443 51.047 54.7217 48.4764C51.4175 47.7067 47.6275 46.6988 44.4648 44.4713C41.2316 42.1257 38.9055 38.3597 40.6029 34.7185C41.6001 35.8924 42.9859 36.8907 44.2748 37.7001C45.5293 38.4212 46.456 36.2837 45.2452 35.4603ZM39.5622 53.7884C34.4444 50.033 33.2876 44.4489 38.6374 40.7766C41.1716 47.3159 49.0451 49.8212 54.3224 50.956C65.2985 53.5877 77.5839 53.4821 88.3751 50.956C91.3111 50.2718 94.6181 49.4004 97.6537 47.6826C96.1758 54.3119 88.0055 56.7095 83.073 57.7938C72.5372 60.2592 60.5396 60.364 49.8193 57.7939C46.5149 57.0238 42.7247 56.0159 39.5622 53.7884ZM102.65 65.3401C101.777 72.359 92.9749 75.0693 87.9751 76.124C77.4387 78.5893 65.4423 78.6944 54.7213 76.1242C49.7273 75.0739 40.907 72.3541 40.0462 65.3401C39.9337 64.0029 40.2773 62.7365 41.0645 61.5606C44.6469 65.1084 49.7822 66.5187 53.8962 67.4751C61.9283 69.3764 70.4393 69.8619 78.619 69.0162C79.1969 68.958 79.6261 68.3473 79.5777 67.6524C79.5293 66.9572 79.0211 66.4412 78.4436 66.4995C70.45 67.3258 62.1467 66.8536 54.2957 64.9955C49.7518 63.9178 43.479 62.2844 40.6162 57.2629C43.5191 58.8092 46.6361 59.625 49.4194 60.2737C60.394 62.905 72.6819 62.7997 83.4721 60.2737C89.0387 59.134 97.8757 56.1229 99.6099 48.6637C104.15 52.4068 102.289 57.7858 97.8063 60.9904C93.205 64.0896 88.2258 64.8838 83.2707 65.8524C82.6963 65.949 82.2958 66.5873 82.3763 67.2779C82.4567 67.9685 82.9865 68.4505 83.5618 68.3536C89.3289 67.2245 96.5716 66.058 101.262 61.0546C102.311 62.37 102.779 63.8088 102.65 65.3401Z" fill="#E67F1E"/>
<path d="M47.6271 23.9185C48.1114 24.302 48.7626 24.1406 49.0815 23.5583C49.3466 23.0741 49.7921 22.785 50.2732 22.785C50.7576 22.785 51.2049 23.0773 51.4695 23.5669C51.7875 24.1563 52.4427 24.3145 52.9223 23.9377C53.4085 23.5578 53.5467 22.7759 53.2307 22.1911C52.5771 20.9818 51.4716 20.2599 50.2732 20.2599C49.0835 20.2599 47.9823 20.9739 47.3275 22.1698C47.0085 22.7521 47.1426 23.5351 47.6271 23.9185Z" fill="#E67F1E"/>
<path d="M52.8895 30.3705C52.1657 31.7981 53.8392 33.1232 54.6438 31.7589C54.9088 31.2748 55.3543 30.9857 55.8354 30.9857C56.32 30.9857 56.7671 31.278 57.0317 31.7676C57.3496 32.3571 58.0049 32.5153 58.4843 32.1384C58.9707 31.7585 59.1087 30.9766 58.7927 30.3919C58.1393 29.1827 57.0338 28.4606 55.8354 28.4606C54.6456 28.4606 53.5443 29.1746 52.8895 30.3705Z" fill="#E67F1E"/>
<path d="M78.0673 27.7761C78.5516 28.1594 79.2029 27.9981 79.5217 27.4157C79.7867 26.9315 80.2322 26.6425 80.7133 26.6425C81.1978 26.6425 81.645 26.9348 81.9096 27.4244C82.2274 28.014 82.8828 28.1722 83.3622 27.7953C83.8486 27.4155 83.9866 26.6334 83.6706 26.0488C83.0172 24.8396 81.9117 24.1174 80.7133 24.1174C79.5235 24.1174 78.4222 24.8315 77.7674 26.0275C77.4486 26.6097 77.5828 27.3928 78.0673 27.7761Z" fill="#E67F1E"/>
<path d="M67.3311 38.1049C67.8152 38.4883 68.4666 38.3271 68.7855 37.7446C69.0507 37.2604 69.4961 36.9713 69.9772 36.9713C70.4617 36.9713 70.909 37.2636 71.1735 37.7532C71.4915 38.3428 72.1468 38.501 72.6261 38.1241C73.1125 37.7441 73.2506 36.9622 72.9346 36.3776C72.2811 35.1684 71.1755 34.4462 69.9771 34.4462C68.7873 34.4462 67.6862 35.1603 67.0313 36.3562C66.7125 36.9385 66.8466 37.7214 67.3311 38.1049Z" fill="#E67F1E"/>
<path d="M70.3452 20.8021C70.8295 21.1856 71.4807 21.0242 71.7997 20.4419C72.0648 19.9577 72.5103 19.6686 72.9912 19.6686C73.4758 19.6686 73.923 19.9609 74.1875 20.4505C74.5055 21.0399 75.1608 21.1981 75.6403 20.8213C76.1266 20.4414 76.2647 19.6595 75.9487 19.0747C75.2952 17.8655 74.1897 17.1435 72.9912 17.1435C71.8015 17.1435 70.7003 17.8575 70.0455 19.0534C69.7267 19.6357 69.8608 20.4187 70.3452 20.8021Z" fill="#E67F1E"/>
<path d="M89.7083 22.5616C90.1928 22.9449 90.844 22.7837 91.1628 22.2012C91.4277 21.717 91.8732 21.4281 92.3543 21.4281C92.8389 21.4281 93.2861 21.7204 93.5506 22.21C93.8686 22.7995 94.5238 22.9577 95.0032 22.5808C95.4896 22.2011 95.6277 21.419 95.3117 20.8343C94.6582 19.6251 93.5527 18.903 92.3543 18.903C91.1646 18.903 90.0633 19.617 89.4084 20.8131C89.0898 21.3954 89.2239 22.1783 89.7083 22.5616Z" fill="#E67F1E"/>
<path d="M51.0116 97.4535C51.0116 98.3031 50.4508 98.7449 49.4823 98.7449H47.3413V96.1111H49.4483C50.4169 96.1111 51.0116 96.6039 51.0116 97.4535ZM50.7227 92.7466C50.7227 93.5623 50.196 93.9871 49.2444 93.9871H47.3413V91.4892H49.2444C50.196 91.4892 50.7227 91.931 50.7227 92.7466ZM53.9512 97.8443C53.9512 96.4849 53.0507 95.2615 51.6573 94.9726C52.8128 94.6328 53.6794 93.6982 53.6794 92.2539C53.6794 90.3677 52.235 89.1613 49.8051 89.1613H44.4356V101.09H49.9921C52.5069 101.09 53.9512 99.8154 53.9512 97.8443ZM58.5422 96.6888C58.5422 95.0576 59.3408 94.5818 60.7172 94.5818H61.5158V91.5062C60.2414 91.5062 59.2049 92.1859 58.5422 93.1884V91.6082H55.6365V101.09H58.5422V96.6888ZM67.0848 93.8001C68.0533 93.8001 68.869 94.3949 68.869 95.4314H65.2326C65.4025 94.3779 66.1332 93.8001 67.0848 93.8001ZM71.6217 97.9463H68.5291C68.2912 98.456 67.8324 98.8638 67.0168 98.8638C66.0822 98.8638 65.3176 98.2861 65.2156 97.0457H71.7916C71.8256 96.7568 71.8426 96.4679 71.8426 96.1961C71.8426 93.3074 69.8885 91.4722 67.1188 91.4722C64.298 91.4722 62.327 93.3414 62.327 96.349C62.327 99.3566 64.332 101.226 67.1188 101.226C69.4807 101.226 71.1629 99.7984 71.6217 97.9463ZM72.7977 96.332C72.7977 99.3226 74.6499 101.226 76.9608 101.226C78.3712 101.226 79.3737 100.58 79.9005 99.7474V101.09H82.8062V91.6082H79.9005V92.9505C79.3907 92.1179 78.3882 91.4722 76.9778 91.4722C74.6499 91.4722 72.7977 93.3414 72.7977 96.332ZM79.9005 96.349C79.9005 97.8613 78.9319 98.6939 77.8274 98.6939C76.7399 98.6939 75.7544 97.8443 75.7544 96.332C75.7544 94.8197 76.7399 94.0041 77.8274 94.0041C78.9319 94.0041 79.9005 94.8367 79.9005 96.349ZM84.3305 96.332C84.3305 99.3226 86.1827 101.226 88.5106 101.226C89.904 101.226 90.9065 100.597 91.4333 99.7304V101.09H94.339V88.5156H91.4333V92.9166C90.8556 92.05 89.7681 91.4722 88.5106 91.4722C86.1827 91.4722 84.3305 93.3414 84.3305 96.332ZM91.4333 96.349C91.4333 97.8613 90.4647 98.6939 89.3602 98.6939C88.2727 98.6939 87.2872 97.8443 87.2872 96.332C87.2872 94.8197 88.2727 94.0041 89.3602 94.0041C90.4647 94.0041 91.4333 94.8367 91.4333 96.349ZM51.4651 110.592C50.8126 110.864 50.4048 111.434 50.4048 112.214C50.4048 113.474 51.4379 114.235 52.7882 114.235C54.1476 114.235 55.1807 113.474 55.1807 112.214C55.1807 111.444 54.7729 110.873 54.1204 110.592C54.637 110.329 55.0176 109.83 55.0176 109.133C55.0176 108.19 54.2926 107.356 52.7882 107.356C51.2839 107.356 50.5589 108.181 50.5589 109.133C50.5589 109.849 50.9214 110.311 51.4651 110.592ZM52.7882 110.22C52.2173 110.22 51.8004 109.867 51.8004 109.323C51.8004 108.707 52.1992 108.38 52.7882 108.38C53.3954 108.38 53.7851 108.716 53.7851 109.314C53.7851 109.858 53.3682 110.22 52.7882 110.22ZM52.7882 111.144C53.4679 111.144 53.9392 111.507 53.9392 112.159C53.9392 112.739 53.5132 113.184 52.7882 113.184C52.0632 113.184 51.6282 112.749 51.6282 112.159C51.6282 111.489 52.1267 111.144 52.7882 111.144ZM56.0197 107.501V108.589H59.1191L56.6904 114.09H57.9772L60.3879 108.444V107.501H56.0197ZM63.4522 114.09H64.721V107.764H63.4522V114.09ZM66.1739 112.531C66.1739 113.682 66.8173 114.09 67.7779 114.09H68.5754V113.02H67.9864C67.5876 113.02 67.4517 112.875 67.4517 112.54V110.111H68.5754V109.069H67.4517V107.828H66.1739V109.069H65.5757V110.111H66.1739V112.531ZM71.6449 110.03C72.2974 110.03 72.823 110.447 72.8411 111.108H70.4577C70.5574 110.419 71.0377 110.03 71.6449 110.03ZM74.0283 112.513H72.6599C72.4967 112.848 72.1977 113.12 71.6539 113.12C71.0196 113.12 70.512 112.703 70.4486 111.96H74.1189C74.1461 111.797 74.1552 111.634 74.1552 111.471C74.1552 109.975 73.1311 108.988 71.6811 108.988C70.1949 108.988 69.1617 109.994 69.1617 111.579C69.1617 113.156 70.222 114.171 71.6811 114.171C72.9227 114.171 73.7564 113.437 74.0283 112.513ZM82.1047 114.09H83.3735V111.144C83.3735 109.758 82.5216 108.997 81.3163 108.997C80.5822 108.997 79.9206 109.386 79.5944 109.957C79.25 109.332 78.6066 108.997 77.8272 108.997C77.2019 108.997 76.6672 109.259 76.35 109.676V109.069H75.0813V114.09H76.35V111.317C76.35 110.519 76.7941 110.102 77.4828 110.102C78.1535 110.102 78.5975 110.519 78.5975 111.317V114.09H79.8663V111.317C79.8663 110.519 80.3103 110.102 80.99 110.102C81.6606 110.102 82.1047 110.519 82.1047 111.317V114.09ZM88.4743 112.658C88.4381 110.818 85.6559 111.389 85.6559 110.474C85.6559 110.184 85.9006 109.994 86.3718 109.994C86.8702 109.994 87.1784 110.256 87.2146 110.646H88.429C88.3565 109.649 87.6224 108.988 86.4081 108.988C85.1665 108.988 84.4234 109.658 84.4234 110.492C84.4234 112.332 87.2599 111.761 87.2599 112.658C87.2599 112.948 86.9881 113.174 86.4896 113.174C85.9821 113.174 85.6287 112.884 85.5834 112.504H84.3056C84.3599 113.437 85.239 114.171 86.4987 114.171C87.7221 114.171 88.4743 113.519 88.4743 112.658Z" fill="#E67F1E"/>
</svg>
