<svg width="226" height="276" viewBox="0 0 226 276" fill="none" xmlns="http://www.w3.org/2000/svg">
<path d="M2.46928 269H8.96728V258.208H17.0993V253.154H8.96728V247.53H19.8353V242.324H2.46928V269ZM29.7485 259.158C29.7485 255.51 31.5345 254.446 34.6125 254.446H36.3985V247.568C33.5485 247.568 31.2305 249.088 29.7485 251.33V247.796H23.2505V269H29.7485V259.158ZM48.8524 252.698C51.0184 252.698 52.8424 254.028 52.8424 256.346H44.7104C45.0904 253.99 46.7244 252.698 48.8524 252.698ZM58.9984 261.97H52.0824C51.5504 263.11 50.5244 264.022 48.7004 264.022C46.6104 264.022 44.9004 262.73 44.6724 259.956H59.3784C59.4544 259.31 59.4924 258.664 59.4924 258.056C59.4924 251.596 55.1224 247.492 48.9284 247.492C42.6204 247.492 38.2124 251.672 38.2124 258.398C38.2124 265.124 42.6964 269.304 48.9284 269.304C54.2104 269.304 57.9724 266.112 58.9984 261.97ZM80.1345 262.844C80.0205 254.94 68.5445 257.334 68.5445 253.952C68.5445 252.926 69.3805 252.318 70.9005 252.318C72.7245 252.318 73.8265 253.268 74.0165 254.712H80.0205C79.6025 250.532 76.5625 247.492 71.0905 247.492C65.5425 247.492 62.4645 250.456 62.4645 254.066C62.4645 261.856 74.0165 259.386 74.0165 262.806C74.0165 263.756 73.1425 264.516 71.4705 264.516C69.6845 264.516 68.3545 263.528 68.2025 262.046H61.7805C62.0845 266.15 65.8845 269.304 71.5465 269.304C76.8665 269.304 80.1345 266.53 80.1345 262.844ZM84.1099 269H90.6079V257.486C90.6079 254.598 92.2039 253.002 94.6739 253.002C97.1439 253.002 98.7399 254.598 98.7399 257.486V269H105.2V256.612C105.2 250.912 101.97 247.568 97.1439 247.568C94.2179 247.568 91.8999 248.822 90.6079 250.646V240.88H84.1099V269ZM117.768 269H124.266V258.208H132.398V253.154H124.266V247.53H135.134V242.324H117.768V269ZM145.047 259.158C145.047 255.51 146.833 254.446 149.911 254.446H151.697V247.568C148.847 247.568 146.529 249.088 145.047 251.33V247.796H138.549V269H145.047V259.158ZM175.741 247.796H169.243V259.31C169.243 262.198 167.647 263.794 165.139 263.794C162.707 263.794 161.073 262.198 161.073 259.31V247.796H154.613V260.184C154.613 265.846 157.919 269.228 162.821 269.228C165.671 269.228 167.951 267.936 169.243 266.112V269H175.741V247.796ZM180.409 269H186.907V247.796H180.409V269ZM183.677 245.592C185.957 245.592 187.515 244.034 187.515 242.096C187.515 240.12 185.957 238.562 183.677 238.562C181.359 238.562 179.801 240.12 179.801 242.096C179.801 244.034 181.359 245.592 183.677 245.592ZM192.642 261.628C192.642 267.138 195.72 269 200.128 269H203.434V263.49H201.116C199.672 263.49 199.14 262.958 199.14 261.704V253.192H203.396V247.796H199.14V242.628H192.642V247.796H190.058V253.192H192.642V261.628ZM224.267 262.844C224.153 254.94 212.677 257.334 212.677 253.952C212.677 252.926 213.513 252.318 215.033 252.318C216.857 252.318 217.959 253.268 218.149 254.712H224.153C223.735 250.532 220.695 247.492 215.223 247.492C209.675 247.492 206.597 250.456 206.597 254.066C206.597 261.856 218.149 259.386 218.149 262.806C218.149 263.756 217.275 264.516 215.603 264.516C213.817 264.516 212.487 263.528 212.335 262.046H205.913C206.217 266.15 210.017 269.304 215.679 269.304C220.999 269.304 224.267 266.53 224.267 262.844Z" fill="white"/>
<path d="M127.586 120.932L91.8195 81L58.1806 122.753C34.1473 152.588 55.3605 197 93.6579 197C133.072 197 153.9 150.305 127.586 120.932ZM93.6579 186.47C64.9084 186.47 48.9889 153.138 67.0259 130.739L92.2719 99.4005L119.125 129.371C138.875 151.423 123.245 186.47 93.6579 186.47Z" fill="#FBFBFB"/>
<path d="M143.443 10.6296C109.004 19.1377 95.1184 54.3814 92.4803 70.9398C100.1 48.2062 131.59 37.8117 146.382 35.4562C157.526 30.9145 160.195 24.8251 160.136 22.3481C159.553 11.3001 148.764 9.93239 143.443 10.6296Z" fill="#12B76A"/>
<path d="M170.941 59.1779C139.424 42.8954 105.762 60.2671 92.87 70.9883C113.578 58.9022 144.118 71.8229 156.799 79.794C168.175 83.7167 174.195 80.8931 175.782 78.9909C182.621 70.2941 175.404 62.1585 170.941 59.1779Z" fill="#12B76A"/>
</svg>
