<svg width="139" height="139" viewBox="0 0 139 139" fill="none" xmlns="http://www.w3.org/2000/svg">
<rect width="138.743" height="138.743" rx="28.3204" fill="#FBFBFB"/>
<path d="M25.6807 113.919L22.7241 104.913H19.6315L23.8626 116.841H27.4989L31.73 104.913H28.6544L25.6807 113.919ZM37.1245 109.552C38.093 109.552 38.9086 110.146 38.9086 111.183H35.2723C35.4422 110.129 36.1729 109.552 37.1245 109.552ZM41.6614 113.698H38.5688C38.3309 114.208 37.8721 114.615 37.0565 114.615C36.1219 114.615 35.3573 114.038 35.2553 112.797H41.8313C41.8653 112.508 41.8823 112.219 41.8823 111.948C41.8823 109.059 39.9282 107.224 37.1584 107.224C34.3377 107.224 32.3666 109.093 32.3666 112.101C32.3666 115.108 34.3717 116.977 37.1584 116.977C39.5204 116.977 41.2026 115.55 41.6614 113.698ZM42.8374 112.084C42.8374 115.074 44.6896 116.977 47.0175 116.977C48.4109 116.977 49.4134 116.315 49.9402 115.482V116.824C49.9402 118.422 49.0736 118.999 47.9691 118.999C46.9665 118.999 46.2529 118.541 46.066 117.827H43.1943C43.4492 120.087 45.2843 121.514 48.105 121.514C51.3845 121.514 52.8459 119.356 52.8459 116.824V107.36H49.9402V108.702C49.4304 107.852 48.4109 107.224 47.0175 107.224C44.6896 107.224 42.8374 109.093 42.8374 112.084ZM49.9402 112.101C49.9402 113.613 48.9716 114.445 47.8671 114.445C46.7796 114.445 45.7941 113.596 45.7941 112.084C45.7941 110.571 46.7796 109.756 47.8671 109.756C48.9716 109.756 49.9402 110.588 49.9402 112.101ZM59.1281 109.552C60.0966 109.552 60.9122 110.146 60.9122 111.183H57.2759C57.4458 110.129 58.1765 109.552 59.1281 109.552ZM63.665 113.698H60.5724C60.3345 114.208 59.8757 114.615 59.0601 114.615C58.1255 114.615 57.3609 114.038 57.2589 112.797H63.8349C63.8689 112.508 63.8859 112.219 63.8859 111.948C63.8859 109.059 61.9318 107.224 59.162 107.224C56.3413 107.224 54.3702 109.093 54.3702 112.101C54.3702 115.108 56.3753 116.977 59.162 116.977C61.524 116.977 63.2062 115.55 63.665 113.698ZM65.8776 113.545C65.8776 116.009 67.2539 116.841 69.225 116.841H70.7033V114.377H69.6668C69.0211 114.377 68.7832 114.14 68.7832 113.579V109.773H70.6864V107.36H68.7832V105.049H65.8776V107.36H64.7221V109.773H65.8776V113.545ZM71.7441 112.084C71.7441 115.074 73.5963 116.977 75.9072 116.977C77.3176 116.977 78.3201 116.332 78.8469 115.499V116.841H81.7525V107.36H78.8469V108.702C78.3371 107.869 77.3346 107.224 75.9242 107.224C73.5963 107.224 71.7441 109.093 71.7441 112.084ZM78.8469 112.101C78.8469 113.613 77.8783 114.445 76.7738 114.445C75.6863 114.445 74.7008 113.596 74.7008 112.084C74.7008 110.571 75.6863 109.756 76.7738 109.756C77.8783 109.756 78.8469 110.588 78.8469 112.101ZM86.7603 108.702V104.267H83.8547V116.841H86.7603V115.516C87.2871 116.349 88.2896 116.977 89.683 116.977C92.0109 116.977 93.8631 115.074 93.8631 112.084C93.8631 109.093 92.0279 107.224 89.683 107.224C88.3236 107.224 87.2871 107.852 86.7603 108.702ZM90.9064 112.084C90.9064 113.596 89.9209 114.445 88.8164 114.445C87.7289 114.445 86.7433 113.613 86.7433 112.101C86.7433 110.588 87.7289 109.756 88.8164 109.756C89.9209 109.756 90.9064 110.571 90.9064 112.084ZM95.3875 116.841H98.2931V104.267H95.3875V116.841ZM104.579 109.552C105.547 109.552 106.363 110.146 106.363 111.183H102.727C102.897 110.129 103.627 109.552 104.579 109.552ZM109.116 113.698H106.023C105.785 114.208 105.327 114.615 104.511 114.615C103.576 114.615 102.812 114.038 102.71 112.797H109.286C109.32 112.508 109.337 112.219 109.337 111.948C109.337 109.059 107.383 107.224 104.613 107.224C101.792 107.224 99.8211 109.093 99.8211 112.101C99.8211 115.108 101.826 116.977 104.613 116.977C106.975 116.977 108.657 115.55 109.116 113.698ZM118.567 114.089C118.516 110.554 113.384 111.625 113.384 110.112C113.384 109.654 113.758 109.382 114.438 109.382C115.254 109.382 115.746 109.807 115.831 110.452H118.516C118.329 108.583 116.97 107.224 114.523 107.224C112.042 107.224 110.666 108.549 110.666 110.163C110.666 113.647 115.831 112.542 115.831 114.072C115.831 114.496 115.441 114.836 114.693 114.836C113.894 114.836 113.3 114.394 113.232 113.732H110.36C110.496 115.567 112.195 116.977 114.727 116.977C117.106 116.977 118.567 115.737 118.567 114.089ZM51.4652 126.343C50.8127 126.615 50.4049 127.186 50.4049 127.965C50.4049 129.225 51.438 129.986 52.7883 129.986C54.1477 129.986 55.1808 129.225 55.1808 127.965C55.1808 127.195 54.773 126.624 54.1205 126.343C54.6371 126.08 55.0177 125.582 55.0177 124.884C55.0177 123.942 54.2927 123.108 52.7883 123.108C51.284 123.108 50.559 123.933 50.559 124.884C50.559 125.6 50.9215 126.062 51.4652 126.343ZM52.7883 125.972C52.2174 125.972 51.8005 125.618 51.8005 125.074C51.8005 124.458 52.1993 124.132 52.7883 124.132C53.3955 124.132 53.7852 124.467 53.7852 125.065C53.7852 125.609 53.3683 125.972 52.7883 125.972ZM52.7883 126.896C53.468 126.896 53.9393 127.259 53.9393 127.911C53.9393 128.491 53.5133 128.935 52.7883 128.935C52.0633 128.935 51.6283 128.5 51.6283 127.911C51.6283 127.24 52.1268 126.896 52.7883 126.896ZM56.0198 123.253V124.34H59.1192L56.6905 129.841H57.9773L60.388 124.195V123.253H56.0198ZM63.4523 129.841H64.7211V123.516H63.4523V129.841ZM66.174 128.283C66.174 129.434 66.8174 129.841 67.778 129.841H68.5755V128.772H67.9865C67.5877 128.772 67.4518 128.627 67.4518 128.292V125.863H68.5755V124.821H67.4518V123.579H66.174V124.821H65.5758V125.863H66.174V128.283ZM71.645 125.781C72.2975 125.781 72.8231 126.198 72.8412 126.86H70.4578C70.5575 126.171 71.0378 125.781 71.645 125.781ZM74.0284 128.264H72.66C72.4968 128.6 72.1978 128.872 71.654 128.872C71.0196 128.872 70.5121 128.455 70.4487 127.712H74.119C74.1462 127.549 74.1553 127.385 74.1553 127.222C74.1553 125.727 73.1312 124.739 71.6812 124.739C70.195 124.739 69.1618 125.745 69.1618 127.331C69.1618 128.908 70.2221 129.923 71.6812 129.923C72.9228 129.923 73.7565 129.189 74.0284 128.264ZM82.1048 129.841H83.3736V126.896C83.3736 125.509 82.5217 124.748 81.3164 124.748C80.5823 124.748 79.9207 125.138 79.5945 125.709C79.2501 125.084 78.6067 124.748 77.8273 124.748C77.202 124.748 76.6673 125.011 76.3501 125.428V124.821H75.0814V129.841H76.3501V127.068C76.3501 126.271 76.7942 125.854 77.4829 125.854C78.1535 125.854 78.5976 126.271 78.5976 127.068V129.841H79.8664V127.068C79.8664 126.271 80.3104 125.854 80.9901 125.854C81.6607 125.854 82.1048 126.271 82.1048 127.068V129.841ZM88.4744 128.409C88.4382 126.57 85.656 127.141 85.656 126.225C85.656 125.935 85.9007 125.745 86.3719 125.745C86.8703 125.745 87.1785 126.008 87.2147 126.398H88.4291C88.3566 125.401 87.6225 124.739 86.4082 124.739C85.1666 124.739 84.4235 125.41 84.4235 126.244C84.4235 128.083 87.26 127.512 87.26 128.409C87.26 128.699 86.9882 128.926 86.4897 128.926C85.9822 128.926 85.6288 128.636 85.5835 128.255H84.3056C84.36 129.189 85.2391 129.923 86.4988 129.923C87.7222 129.923 88.4744 129.27 88.4744 128.409Z" fill="#E67F1E"/>
<path d="M98.9996 41.1711C102.19 41.1711 104.785 38.5754 104.785 35.3852C104.785 34.1275 104.366 32.911 103.606 31.9137C104.366 30.9164 104.785 29.6999 104.785 28.4422C104.785 25.252 102.19 22.6563 98.9996 22.6563C97.7418 22.6563 96.5253 23.0761 95.5281 23.8355C94.5308 23.0761 93.3143 22.6563 92.0565 22.6563C88.8664 22.6563 86.2707 25.252 86.2707 28.4422C86.2707 30.8119 87.7058 32.8477 89.749 33.7421L85.6921 37.799L85.4711 37.5781C84.0569 36.1638 82.1776 35.3852 80.1768 35.3852C77.8348 35.3852 75.5956 36.504 74.1887 38.3799L74.1435 38.4415C73.2394 36.23 71.3336 34.5394 69.3029 33.7003C69.2831 31.5826 68.4559 29.5728 66.962 28.08C65.1878 26.3058 62.7316 25.473 60.2551 25.7809C58.7227 23.8112 56.3903 22.6563 53.8697 22.6563C51.3491 22.6563 49.0167 23.8112 47.4843 25.7798C45.0129 25.4763 42.5528 26.3058 40.7786 28.08C39.2846 29.5728 38.4563 31.5826 38.4377 33.7003C35.6312 34.8586 33.0405 37.6244 33.0405 41.1711C33.0405 43.5606 34.4672 45.4975 35.6012 46.6598C34.9385 49.4007 35.7205 52.257 37.7269 54.2611C38.4676 55.003 39.3321 55.5816 40.2983 55.9816C41.495 56.4794 42.2979 57.7406 42.2979 59.1237V66.629H36.5121C34.5983 66.629 33.0405 68.1868 33.0405 70.1005C33.0405 71.7103 34.148 73.0562 35.6363 73.4461L40.2475 87.2802C41.6674 91.5394 45.6378 94.4012 50.1275 94.4012H87.6996C92.1899 94.4012 96.1598 91.5394 97.5786 87.2813L102.19 73.4472C103.678 73.0562 104.785 71.7103 104.785 70.1005C104.785 68.1868 103.228 66.629 101.314 66.629H98.9408C98.4741 60.5493 94.385 55.4782 88.8268 53.5678L89.1958 53.2729C91.0141 51.8185 92.0565 49.6488 92.0565 47.3203C92.0565 45.3139 91.2429 43.3487 89.823 41.93L89.6427 41.7497L93.6996 37.6928C94.5941 39.736 96.6299 41.1711 98.9996 41.1711ZM41.1848 53.8447C40.5006 53.561 39.8887 53.1514 39.3643 52.6259C37.8082 51.071 37.2861 48.7933 38.0015 46.6807L38.2444 45.962L37.6834 45.4529C36.8127 44.6658 35.3549 43.0617 35.3549 41.1711C35.3549 38.4285 37.7235 36.2633 39.9525 35.618L40.8792 35.3496L40.7808 34.3902C40.604 32.6347 41.1995 30.93 42.4149 29.7163C43.8128 28.3196 45.809 27.7432 47.7601 28.1738L48.5522 28.3484L48.9862 27.6636C50.0569 25.9775 51.8831 24.9706 53.8697 24.9706C55.8563 24.9706 57.6825 25.9775 58.7544 27.6636L59.1883 28.3484L59.9805 28.1738C61.9315 27.7421 63.9289 28.3196 65.3256 29.7163C66.541 30.9311 67.1354 32.6347 66.9586 34.3902L66.8614 35.3496L67.788 35.618C70.0159 36.2633 72.3845 38.4285 72.3845 41.1711C72.3845 43.0617 70.9268 44.6658 70.0561 45.4529L69.495 45.962L69.7379 46.6807C70.4533 48.7922 69.9312 51.071 68.374 52.6271C67.8507 53.1514 67.2388 53.561 66.5557 53.8447C64.6267 54.6442 63.3435 56.4851 63.1644 58.6147C62.7717 58.5632 62.3751 58.5288 61.9699 58.5288C61.1693 58.5288 60.3975 58.6412 59.6556 58.8333V52.8853L60.6749 48.8075L68.4282 43.2691L67.0834 41.3864L61.5394 45.3461L63.0915 39.137L60.8472 38.5765L57.3757 52.4626L57.3458 59.7786C56.4722 60.2854 55.6902 60.9301 55.0269 61.6833V37.6996H52.7125V66.629H50.3982V52.7429L46.8922 38.5765L44.6479 39.137L46.2 45.3461L40.656 41.3864L39.3112 43.2691L47.0645 48.8075L48.0838 52.8853V66.629H44.6123V59.1237C44.6123 56.7789 43.2664 54.7081 41.1848 53.8447ZM61.9699 60.8431C65.403 60.8431 68.2547 63.3507 68.809 66.629H55.1308C55.6851 63.3507 58.5368 60.8431 61.9699 60.8431ZM42.8279 87.4582H44.6123V89.9031C43.8778 89.2182 43.272 88.3933 42.8279 87.4582ZM88.585 87.4582H90.8994V91.4043C90.1705 91.7179 89.3964 91.927 88.585 92.0163V87.4582ZM86.2707 92.0869H83.9563V87.4582H86.2707V92.0869ZM81.6419 92.0869H79.3276V87.4582H81.6419V92.0869ZM77.0132 92.0869H74.6989V87.4582H77.0132V92.0869ZM72.3845 92.0869H70.0702V87.4582H72.3845V92.0869ZM67.7558 92.0869H65.4415V87.4582H67.7558V92.0869ZM63.1271 92.0869H60.8128V87.4582H63.1271V92.0869ZM58.4984 92.0869H56.1841V87.4582H58.4984V92.0869ZM53.8697 92.0869H51.5554V87.4582H53.8697V92.0869ZM49.241 92.0163C48.4296 91.927 47.6555 91.7191 46.9266 91.4043V87.4582H49.241V92.0163ZM93.2137 89.9031V87.4582H94.9981C94.554 88.3933 93.9482 89.2182 93.2137 89.9031ZM95.8518 85.1438H41.9742L38.1173 73.5721H99.7087L95.8518 85.1438ZM102.471 70.1005C102.471 70.739 101.952 71.2577 101.314 71.2577H36.5121C35.8736 71.2577 35.3549 70.739 35.3549 70.1005C35.3549 69.4621 35.8736 68.9434 36.5121 68.9434H101.314C101.952 68.9434 102.471 69.4621 102.471 70.1005ZM71.2861 66.629C71.4647 64.6571 72.1009 62.8207 73.079 61.211L78.1659 63.2479L83.9506 60.9335L89.7399 63.2479L94.8348 61.211C95.8128 62.8218 96.4491 64.6582 96.6276 66.6301H71.2861V66.629ZM93.4058 59.2876L89.7388 60.7538L83.9495 58.4395L78.1648 60.7538L74.5056 59.2893C76.8386 56.6981 80.2045 55.0572 83.9563 55.0572C87.7081 55.0572 91.074 56.6981 93.4058 59.2876ZM87.7493 51.4654L87.1272 51.9632L81.3018 46.1377L79.6655 47.774L84.6694 52.7774C84.4321 52.7672 84.197 52.7429 83.9563 52.7429C83.0223 52.7429 82.1115 52.8401 81.2244 53.0034L78.9886 50.7676L77.3523 52.4039L78.6693 53.721C77.8048 54.047 76.9799 54.4487 76.1996 54.9216L74.3599 53.0819L72.7235 54.7182L74.2859 56.2805C72.2433 57.9999 70.6742 60.2555 69.7718 62.8241C68.7429 61.2121 67.2326 59.9396 65.4415 59.2113V59.1249C65.4415 57.7428 66.2444 56.4805 67.4422 55.9839C68.4073 55.5827 69.2718 55.0041 70.0114 54.2645C72.0178 52.2604 72.801 49.403 72.1382 46.6621C73.2027 45.5704 74.5102 43.7912 74.6678 41.5994L76.0403 39.771C77.0121 38.4748 78.5592 37.7019 80.1768 37.7019C81.5589 37.7019 82.8568 38.2398 83.8337 39.2167L88.1867 43.5702C89.1749 44.5556 89.7422 45.9224 89.7422 47.3203C89.7422 48.9425 89.0156 50.4528 87.7493 51.4654ZM87.3284 39.4354L93.5527 33.211C94.8082 31.9555 95.5281 30.2175 95.5281 28.4422H93.2137C93.2137 29.6084 92.7413 30.7498 91.9164 31.5747L91.6215 31.8696C89.9145 31.6532 88.585 30.2079 88.585 28.4422C88.585 26.5284 90.1428 24.9706 92.0565 24.9706C93.0561 24.9706 93.9799 25.3978 94.6568 26.1719L95.5281 27.168L96.3993 26.1719C97.0762 25.3978 98.0001 24.9706 98.9996 24.9706C100.913 24.9706 102.471 26.5284 102.471 28.4422C102.471 29.4417 102.044 30.3655 101.27 31.0424L100.274 31.9137L101.27 32.785C102.044 33.4619 102.471 34.3857 102.471 35.3852C102.471 37.299 100.913 38.8568 98.9996 38.8568C97.2339 38.8568 95.7885 37.5273 95.5721 35.8203L95.8671 35.5254C96.692 34.7004 97.8334 34.2281 98.9996 34.2281V31.9137C97.2243 31.9137 95.4863 32.6336 94.2308 33.889L88.0064 40.1134L87.3284 39.4354Z" fill="#E67F1E"/>
<path d="M64.2844 75.8864H73.5418V78.2008H64.2844V75.8864Z" fill="#E67F1E"/>
<path d="M64.2844 80.5151H73.5418V82.8295H64.2844V80.5151Z" fill="#E67F1E"/>
<path d="M55.0267 75.8864H57.3411V82.8295H55.0267V75.8864Z" fill="#E67F1E"/>
<path d="M59.6554 75.8864H61.9697V82.8295H59.6554V75.8864Z" fill="#E67F1E"/>
<path d="M85.1133 75.8864H94.3707V78.2008H85.1133V75.8864Z" fill="#E67F1E"/>
<path d="M85.1133 80.5151H94.3707V82.8295H85.1133V80.5151Z" fill="#E67F1E"/>
<path d="M75.8557 75.8864H78.1701V82.8295H75.8557V75.8864Z" fill="#E67F1E"/>
<path d="M80.4847 75.8864H82.7991V82.8295H80.4847V75.8864Z" fill="#E67F1E"/>
<path d="M43.4551 75.8864H52.7125V78.2008H43.4551V75.8864Z" fill="#E67F1E"/>
<path d="M43.4551 80.5151H52.7125V82.8295H43.4551V80.5151Z" fill="#E67F1E"/>
</svg>
