<svg width="139" height="139" viewBox="0 0 139 139" fill="none" xmlns="http://www.w3.org/2000/svg">
<rect width="138.743" height="138.743" rx="28.3204" fill="#FBFBFB"/>
<path d="M61.5455 95.0916C61.5455 91.5062 58.8438 88.9914 55.4453 88.9914C52.0639 88.9914 49.3111 91.5062 49.3111 95.0916C49.3111 98.6769 52.0639 101.209 55.4453 101.209C58.8268 101.209 61.5455 98.6769 61.5455 95.0916ZM52.2848 95.0916C52.2848 92.9675 53.5082 91.6251 55.4453 91.6251C57.3484 91.6251 58.5889 92.9675 58.5889 95.0916C58.5889 97.1816 57.3484 98.558 55.4453 98.558C53.5082 98.558 52.2848 97.1816 52.2848 95.0916ZM62.5843 96.332C62.5843 99.3226 64.4365 101.226 66.7474 101.226C68.1578 101.226 69.1603 100.58 69.6871 99.7474V101.09H72.5927V91.6082H69.6871V92.9505C69.1773 92.1179 68.1747 91.4722 66.7644 91.4722C64.4365 91.4722 62.5843 93.3414 62.5843 96.332ZM69.6871 96.349C69.6871 97.8613 68.7185 98.6939 67.614 98.6939C66.5265 98.6939 65.541 97.8443 65.541 96.332C65.541 94.8197 66.5265 94.0041 67.614 94.0041C68.7185 94.0041 69.6871 94.8367 69.6871 96.349ZM75.1536 97.7933C75.1536 100.257 76.53 101.09 78.5011 101.09H79.9794V98.6259H78.9429C78.2972 98.6259 78.0593 98.388 78.0593 97.8273V94.021H79.9624V91.6082H78.0593V89.2972H75.1536V91.6082H73.9982V94.021H75.1536V97.7933ZM89.2954 98.3371C89.2444 94.8027 84.1128 95.8732 84.1128 94.3609C84.1128 93.9021 84.4866 93.6302 85.1663 93.6302C85.9819 93.6302 86.4747 94.055 86.5597 94.7007H89.2444C89.0575 92.8316 87.6981 91.4722 85.2513 91.4722C82.7704 91.4722 81.394 92.7976 81.394 94.4119C81.394 97.8953 86.5597 96.7908 86.5597 98.3201C86.5597 98.7449 86.1688 99.0847 85.4212 99.0847C84.6226 99.0847 84.0278 98.6429 83.9599 97.9802H81.0882C81.2241 99.8154 82.9233 101.226 85.4552 101.226C87.8341 101.226 89.2954 99.9853 89.2954 98.3371ZM51.4653 110.592C50.8128 110.864 50.405 111.434 50.405 112.214C50.405 113.474 51.4381 114.235 52.7884 114.235C54.1478 114.235 55.1809 113.474 55.1809 112.214C55.1809 111.444 54.7731 110.873 54.1206 110.592C54.6371 110.329 55.0178 109.83 55.0178 109.133C55.0178 108.19 54.2928 107.356 52.7884 107.356C51.284 107.356 50.559 108.181 50.559 109.133C50.559 109.849 50.9215 110.311 51.4653 110.592ZM52.7884 110.22C52.2175 110.22 51.8006 109.867 51.8006 109.323C51.8006 108.707 52.1993 108.38 52.7884 108.38C53.3956 108.38 53.7853 108.716 53.7853 109.314C53.7853 109.858 53.3684 110.22 52.7884 110.22ZM52.7884 111.144C53.4681 111.144 53.9393 111.507 53.9393 112.159C53.9393 112.739 53.5134 113.184 52.7884 113.184C52.0634 113.184 51.6284 112.749 51.6284 112.159C51.6284 111.489 52.1268 111.144 52.7884 111.144ZM56.0199 107.501V108.589H59.1193L56.6905 114.09H57.9774L60.388 108.444V107.501H56.0199ZM63.4524 114.09H64.7211V107.764H63.4524V114.09ZM66.174 112.531C66.174 113.682 66.8175 114.09 67.7781 114.09H68.5756V113.02H67.9865C67.5878 113.02 67.4518 112.875 67.4518 112.54V110.111H68.5756V109.069H67.4518V107.828H66.174V109.069H65.5759V110.111H66.174V112.531ZM71.645 110.03C72.2975 110.03 72.8231 110.447 72.8413 111.108H70.4578C70.5575 110.419 71.0378 110.03 71.645 110.03ZM74.0285 112.513H72.66C72.4969 112.848 72.1978 113.12 71.6541 113.12C71.0197 113.12 70.5122 112.703 70.4488 111.96H74.1191C74.1463 111.797 74.1553 111.634 74.1553 111.471C74.1553 109.975 73.1313 108.988 71.6813 108.988C70.195 108.988 69.1619 109.994 69.1619 111.579C69.1619 113.156 70.2222 114.171 71.6813 114.171C72.9228 114.171 73.7566 113.437 74.0285 112.513ZM82.1049 114.09H83.3736V111.144C83.3736 109.758 82.5217 108.997 81.3164 108.997C80.5824 108.997 79.9208 109.386 79.5945 109.957C79.2502 109.332 78.6067 108.997 77.8274 108.997C77.202 108.997 76.6674 109.259 76.3502 109.676V109.069H75.0814V114.09H76.3502V111.317C76.3502 110.519 76.7942 110.102 77.483 110.102C78.1536 110.102 78.5977 110.519 78.5977 111.317V114.09H79.8664V111.317C79.8664 110.519 80.3105 110.102 80.9902 110.102C81.6608 110.102 82.1049 110.519 82.1049 111.317V114.09ZM88.4745 112.658C88.4382 110.818 85.656 111.389 85.656 110.474C85.656 110.184 85.9007 109.994 86.372 109.994C86.8704 109.994 87.1785 110.256 87.2148 110.646H88.4292C88.3567 109.649 87.6226 108.988 86.4082 108.988C85.1666 108.988 84.4235 109.658 84.4235 110.492C84.4235 112.332 87.2601 111.761 87.2601 112.658C87.2601 112.948 86.9882 113.174 86.4898 113.174C85.9823 113.174 85.6288 112.884 85.5835 112.504H84.3057C84.3601 113.437 85.2391 114.171 86.4988 114.171C87.7223 114.171 88.4745 113.519 88.4745 112.658Z" fill="#E67F1E"/>
<path d="M104.785 14.8188C104.786 13.627 104.478 12.462 103.901 11.471C103.325 10.48 102.505 9.70761 101.546 9.25151C100.587 8.79541 99.5318 8.67609 98.5137 8.90863C97.4956 9.14118 96.5605 9.71515 95.8266 10.5579L83.439 24.7742C83.2265 24.7479 83.0129 24.7351 82.7991 24.7357C82.0911 24.7345 81.3889 24.8831 80.7278 25.1741C80.2557 24.3265 79.6227 23.6125 78.8763 23.0855C79.9192 21.6353 80.4881 19.8124 80.4848 17.9318V12.7781C80.4848 12.4257 80.3628 12.0878 80.1458 11.8386C79.9288 11.5894 79.6345 11.4495 79.3276 11.4495H74.8389C73.9083 11.4463 72.9865 11.6553 72.1268 12.0642C71.2671 12.4731 70.4866 13.0739 69.8306 13.8317C69.4871 14.2269 69.1796 14.6614 68.913 15.1284C68.6464 14.6614 68.3389 14.2269 67.9954 13.8317C67.3394 13.0739 66.5589 12.4731 65.6992 12.0642C64.8395 11.6553 63.9176 11.4463 62.9871 11.4495H58.4984C58.1915 11.4495 57.8972 11.5894 57.6802 11.8386C57.4631 12.0878 57.3412 12.4257 57.3412 12.7781V17.9318C57.3366 19.8118 57.9039 21.6346 58.9451 23.0855C58.1986 23.6125 57.5657 24.3265 57.0936 25.1741C55.8989 24.6504 54.5866 24.5972 53.3628 25.0228C52.1389 25.4485 51.0729 26.3289 50.3322 27.5258C49.9733 27.4396 49.6077 27.3951 49.241 27.3929C47.8908 27.395 46.5836 27.9383 45.545 28.9289C44.5064 29.9196 43.8017 31.2954 43.5523 32.819C42.4226 33.0645 41.3819 33.6903 40.5628 34.6168C39.7437 35.5432 39.1832 36.7286 38.9525 38.0219H36.5121C35.5913 38.0219 34.7084 38.4418 34.0573 39.1893C33.4063 39.9368 33.0405 40.9506 33.0405 42.0077V51.3081C33.0491 57.4149 35.0913 63.2868 38.7488 67.7205C42.4062 72.1543 47.402 74.8143 52.7125 75.1555V76.5519C52.7125 77.609 53.0783 78.6228 53.7293 79.3703C54.3804 80.1178 55.2633 80.5378 56.1841 80.5378H81.6419C82.5626 80.5378 83.4456 80.1178 84.0967 79.3703C84.7477 78.6228 85.1135 77.609 85.1135 76.5519V75.1555C90.4239 74.8143 95.4197 72.1543 99.0772 67.7205C102.735 63.2868 104.777 57.4149 104.785 51.3081V42.0077C104.785 40.9506 104.42 39.9368 103.769 39.1893C103.118 38.4418 102.235 38.0219 101.314 38.0219H98.8734C98.6428 36.7286 98.0822 35.5432 97.2632 34.6168C96.4441 33.6903 95.4034 33.0645 94.2737 32.819C94.1277 31.9493 93.8297 31.1227 93.3977 30.389L103.249 19.0797C103.737 18.5213 104.125 17.8573 104.389 17.1259C104.652 16.3946 104.787 15.6104 104.785 14.8188ZM71.4669 15.7103C71.9087 15.2003 72.4342 14.796 73.013 14.5207C73.5918 14.2454 74.2124 14.1047 74.8389 14.1067H78.1704V17.9318C78.1665 19.3824 77.6651 20.7728 76.7748 21.8021C76.6719 21.9203 76.5527 22.016 76.4416 22.1223C74.9916 21.9242 73.5325 22.3949 72.3845 23.431C71.7002 22.8465 70.9086 22.4493 70.0702 22.2697V19.5819C70.0742 18.1307 70.576 16.7398 71.4669 15.7103ZM61.0523 21.8034C60.1614 20.774 59.6596 19.383 59.6556 17.9318V14.1067H62.9871C63.6136 14.1047 64.2342 14.2454 64.813 14.5207C65.3918 14.796 65.9173 15.2003 66.3591 15.7103C67.25 16.7398 67.7518 18.1307 67.7558 19.5819V22.2697C66.9174 22.4493 66.1258 22.8465 65.4415 23.431C64.2935 22.3949 62.8344 21.9242 61.3844 22.1223C61.2756 22.016 61.1599 21.9203 61.0523 21.8034ZM81.6419 77.8805H56.1841C55.8772 77.8805 55.5828 77.7405 55.3658 77.4914C55.1488 77.2422 55.0269 76.9043 55.0269 76.5519V75.2233H82.7991V76.5519C82.7991 76.9043 82.6772 77.2422 82.4602 77.4914C82.2432 77.7405 81.9488 77.8805 81.6419 77.8805ZM83.9563 72.566H53.8697C48.9611 72.5594 44.2551 70.3175 40.7842 66.3323C37.3132 62.3472 35.3607 56.944 35.3549 51.3081V47.8723L36.372 49.0401C37.6368 50.4923 39.3521 51.308 41.1408 51.308C42.9294 51.308 44.6447 50.4923 45.9095 49.0401L47.2657 47.483C48.0966 46.5294 49.2233 45.9936 50.3982 45.9936C51.573 45.9936 52.6998 46.5294 53.5307 47.483L54.8869 49.0401C56.1516 50.4923 57.867 51.308 59.6556 51.308C61.4442 51.308 63.1596 50.4923 64.4243 49.0401L65.7805 47.483C66.6114 46.5294 67.7382 45.9936 68.913 45.9936C70.0878 45.9936 71.2146 46.5294 72.0455 47.483L73.4017 49.0401C74.6664 50.4923 76.3818 51.308 78.1704 51.308C79.959 51.308 81.6744 50.4923 82.9391 49.0401L84.2953 47.483C85.1262 46.5294 86.253 45.9936 87.4278 45.9936C88.6027 45.9936 89.7294 46.5294 90.5603 47.483L91.9165 49.0401C93.1813 50.4923 94.8966 51.308 96.6852 51.308C98.4738 51.308 100.189 50.4923 101.454 49.0401L102.471 47.8723V51.3081C102.465 56.944 100.513 62.3472 97.0418 66.3323C93.5709 70.3175 88.8649 72.5594 83.9563 72.566ZM102.471 42.0077V44.1149L99.8177 47.1615C98.9868 48.1151 97.8601 48.6508 96.6852 48.6508C95.5104 48.6508 94.3836 48.1151 93.5527 47.1615L92.1965 45.6043C90.9318 44.1522 89.2164 43.3364 87.4278 43.3364C85.6392 43.3364 83.9238 44.1522 82.6591 45.6043L81.3029 47.1615C80.472 48.1151 79.3452 48.6508 78.1704 48.6508C76.9956 48.6508 75.8688 48.1151 75.0379 47.1615L73.6817 45.6043C72.417 44.1522 70.7016 43.3364 68.913 43.3364C67.1244 43.3364 65.409 44.1522 64.1443 45.6043L62.7881 47.1615C61.9572 48.1151 60.8304 48.6508 59.6556 48.6508C58.4807 48.6508 57.354 48.1151 56.5231 47.1615L55.1669 45.6043C53.9021 44.1522 52.1868 43.3364 50.3982 43.3364C48.6096 43.3364 46.8942 44.1522 45.6294 45.6043L44.2732 47.1615C43.4423 48.1151 42.3156 48.6508 41.1408 48.6508C39.9659 48.6508 38.8392 48.1151 38.0083 47.1615L35.3549 44.1149V42.0077C35.3549 41.6554 35.4768 41.3174 35.6938 41.0683C35.9108 40.8191 36.2052 40.6791 36.5121 40.6791H101.314C101.621 40.6791 101.915 40.8191 102.132 41.0683C102.349 41.3174 102.471 41.6554 102.471 42.0077ZM96.4723 38.0219H41.3537C41.5922 37.2474 42.0332 36.5765 42.6165 36.1008C43.1998 35.6252 43.8969 35.368 44.6123 35.3646C44.9192 35.3646 45.2135 35.2247 45.4305 34.9755C45.6476 34.7263 45.7695 34.3884 45.7695 34.036C45.7656 33.3905 45.8992 32.7537 46.1587 32.181C46.4182 31.6084 46.7957 31.1173 47.2584 30.7505C47.721 30.3837 48.2548 30.1524 48.8131 30.0766C49.3714 30.0009 49.9375 30.083 50.4618 30.3159C50.7324 30.4337 51.0316 30.4308 51.3004 30.3079C51.5692 30.1849 51.7882 29.9507 51.9141 29.6516C52.1277 29.1355 52.4358 28.6785 52.8175 28.3119C53.1992 27.9453 53.6453 27.6777 54.1255 27.5274C54.6056 27.3772 55.1083 27.3478 55.5992 27.4413C56.0901 27.5348 56.5576 27.749 56.9698 28.0692C57.1167 28.1833 57.2845 28.2571 57.4602 28.2849C57.6359 28.3128 57.8148 28.2938 57.9831 28.2296C58.1514 28.1654 58.3046 28.0577 58.4309 27.9147C58.5572 27.7716 58.6531 27.5972 58.7113 27.4049C58.9472 26.6275 59.3873 25.9533 59.9709 25.4753C60.5546 24.9972 61.253 24.7388 61.9699 24.7357C62.4644 24.736 62.9529 24.8595 63.4018 25.0976C63.8507 25.3357 64.2493 25.6827 64.5701 26.1148C64.682 26.2513 64.817 26.36 64.9669 26.4344C65.1167 26.5087 65.2782 26.5471 65.4415 26.5471C65.6047 26.5471 65.7662 26.5087 65.9161 26.4344C66.0659 26.36 66.2009 26.2513 66.3128 26.1148C66.6403 25.6952 67.0411 25.3595 67.4891 25.1298C67.9371 24.9 68.4223 24.7812 68.913 24.7812C69.4037 24.7812 69.8889 24.9 70.3369 25.1298C70.7849 25.3595 71.1857 25.6952 71.5132 26.1148C71.625 26.2513 71.7601 26.36 71.9099 26.4344C72.0598 26.5087 72.2213 26.5471 72.3845 26.5471C72.5478 26.5471 72.7093 26.5087 72.8591 26.4344C73.009 26.36 73.144 26.2513 73.2559 26.1148C73.5767 25.6827 73.9752 25.3357 74.4241 25.0976C74.873 24.8595 75.3616 24.736 75.8561 24.7357C76.574 24.7395 77.2731 24.9992 77.8569 25.4791C78.4406 25.9589 78.8802 26.6351 79.1147 27.4142C79.1731 27.6055 79.2689 27.779 79.3948 27.9212C79.5206 28.0635 79.6732 28.1708 79.8407 28.2349C80.0082 28.299 80.1863 28.3183 80.3614 28.2912C80.5364 28.264 80.7037 28.1913 80.8504 28.0785C81.2622 27.7568 81.7297 27.5411 82.2209 27.4463C82.7121 27.3515 83.2153 27.3798 83.6961 27.5292C84.1769 27.6786 84.6238 27.9457 85.0063 28.312C85.3887 28.6783 85.6977 29.1353 85.9119 29.6516C86.0378 29.9507 86.2567 30.1849 86.5256 30.3079C86.7944 30.4308 87.0936 30.4337 87.3642 30.3159C87.8885 30.0827 88.4546 30.0003 89.0131 30.0759C89.5715 30.1515 90.1054 30.3828 90.5681 30.7496C91.0309 31.1165 91.4084 31.6078 91.6678 32.1806C91.9273 32.7534 92.0607 33.3904 92.0565 34.036C92.0565 34.3884 92.1784 34.7263 92.3955 34.9755C92.6125 35.2247 92.9068 35.3646 93.2137 35.3646C93.9291 35.368 94.6262 35.6252 95.2095 36.1008C95.7928 36.5765 96.2338 37.2474 96.4723 38.0219ZM101.612 17.2011L91.7603 28.5103C90.8212 27.786 89.7163 27.3972 88.585 27.3929C88.2183 27.3951 87.8527 27.4396 87.4938 27.5258C87.0559 26.8202 86.5015 26.2203 85.8622 25.76L97.4629 12.4366C98.0161 11.8212 98.7578 11.4801 99.5281 11.4871C100.298 11.4941 101.035 11.8485 101.58 12.4739C102.125 13.0993 102.433 13.9454 102.439 14.8298C102.446 15.7142 102.149 16.5659 101.612 17.2011Z" fill="#E67F1E"/>
<path d="M70.0701 28.7216H67.7557V31.3788H70.0701V28.7216Z" fill="#E67F1E"/>
<path d="M64.2843 31.3788H61.97V34.036H64.2843V31.3788Z" fill="#E67F1E"/>
<path d="M56.184 32.7074H53.8696V35.3647H56.184V32.7074Z" fill="#E67F1E"/>
<path d="M83.9562 32.7074H81.6418V35.3647H83.9562V32.7074Z" fill="#E67F1E"/>
<path d="M75.8561 32.7074H73.5417V35.3647H75.8561V32.7074Z" fill="#E67F1E"/>
</svg>
