<svg width="72" height="72" viewBox="0 0 72 72" fill="none" xmlns="http://www.w3.org/2000/svg">
<path d="M70.5492 41.9673V38.7471C70.5475 37.0967 69.2101 35.7593 67.5598 35.7576C67.2297 35.7572 66.9622 35.4899 66.9618 35.1597V33.964C66.9601 32.3137 65.6227 30.9763 63.9724 30.9746H62.3819C62.1056 30.9749 61.8665 30.7826 61.8074 30.5127L61.2375 28.2677C61.0905 27.6469 60.6983 27.112 60.1504 26.7852C59.6065 26.4592 58.9559 26.3615 58.3403 26.5137C57.7119 26.6729 57.0458 26.5665 56.4981 26.2197C55.9505 25.8727 55.5699 25.3158 55.4453 24.6798L55.3915 24.4217L70.2758 13.5346C71.0442 12.975 71.5578 12.1321 71.7029 11.1926C71.8479 10.2532 71.6126 9.29458 71.0487 8.52919C70.4889 7.7603 69.6457 7.24644 68.7059 7.1014C67.766 6.95623 66.807 7.19193 66.0414 7.75623L50.3276 19.2436C49.8215 19.1023 49.2994 19.0261 48.7739 19.0168H46.8845C46.6103 19.0139 46.3373 18.9797 46.0708 18.915L56.8885 5.87792C57.71 4.89449 57.9436 3.54714 57.501 2.34468C57.0585 1.14208 56.0073 0.267663 54.7441 0.0514422C53.4811 -0.164779 52.1988 0.310123 51.3814 1.29692L37.279 18.2921C36.3069 18.5435 35.2737 18.3701 34.437 17.8152C33.2666 17.0403 31.8943 16.6265 30.4906 16.6252H29.9762C28.7789 16.6216 27.66 17.2204 26.999 18.2186C26.7235 18.6266 26.297 18.9079 25.8135 19.0006C25.3301 19.0932 24.8296 18.9894 24.423 18.712C23.3195 18.0383 21.9012 18.1891 20.9641 19.0799L19.8875 20.1565C19.5282 20.521 19.2275 20.939 18.9959 21.3955C18.6203 22.1325 17.8653 22.5987 17.0381 22.6042C14.8929 22.607 13.1545 24.3453 13.1519 26.4904C13.1524 26.5854 13.0978 26.672 13.0117 26.7122L10.5857 27.9249C9.22514 28.6152 8.366 30.0094 8.3611 31.535L6.91593 32.5024C5.58189 33.3892 4.78049 34.8851 4.78133 36.4869V36.9534C3.46102 36.9546 2.39112 38.0247 2.38972 39.345V41.7366H2.10596C1.3138 41.7367 0.588764 42.1814 0.22933 42.8872C-0.130105 43.593 -0.0631226 44.441 0.402811 45.0816L0.787609 46.0229C4.24168 54.4156 10.2388 61.5149 17.9361 66.323V68.1786C17.9382 70.0843 19.4823 71.6288 21.3879 71.6312H50.3569C52.2627 71.6289 53.8071 70.0846 53.8095 68.1786V66.3225C61.505 61.515 67.5012 54.4174 70.9555 46.027L71.342 45.0816C71.7801 44.4794 71.8675 43.6907 71.5721 43.0072C71.3675 42.5486 71.0043 42.1794 70.5492 41.9673ZM67.4593 9.68176C67.7093 9.49455 68.0241 9.41594 68.3327 9.464C68.6453 9.50996 68.9263 9.67952 69.1128 9.93456C69.2663 10.1404 69.3505 10.3896 69.3534 10.6463C69.3508 11.026 69.1684 11.3821 68.8618 11.6062L38.5942 33.7452L37.4328 34.1321C37.1955 34.2116 36.9386 34.2116 36.7012 34.1321L34.9496 33.5482C34.9143 33.5366 34.8778 33.5362 34.8424 33.5257L67.4593 9.68176ZM46.8846 21.4083H47.3664L38.8142 27.6604L44.4399 20.8807C45.2084 21.2272 46.0416 21.4072 46.8846 21.4083ZM53.225 2.8207C53.4249 2.57687 53.7143 2.42329 54.0283 2.39442C54.508 2.35294 54.9658 2.6035 55.1895 3.02977C55.4131 3.45605 55.3592 3.97509 55.0524 4.3463L30.9154 33.4346L29.4164 34.5304C29.4036 34.5188 29.387 34.5136 29.3746 34.5012C28.9174 34.0429 28.3431 33.7186 27.7144 33.5636L53.225 2.8207ZM4.78133 39.345C6.10163 39.3437 7.17153 38.2737 7.17293 36.9534V36.4869C7.17307 35.6841 7.57525 34.9348 8.24437 34.4911L9.6971 33.5184C10.3606 33.0715 10.759 32.3245 10.7603 31.5245C10.7678 30.9061 11.1162 30.3423 11.6658 30.059L14.0709 28.8562C14.9709 28.411 15.5414 27.4946 15.5433 26.4903C15.5457 25.6657 16.2136 24.998 17.0381 24.9955C18.762 24.9864 20.3375 24.0185 21.1246 22.4848C21.2429 22.2506 21.3957 22.0357 21.5782 21.8472L22.6548 20.7706C22.7878 20.6631 22.9715 20.6435 23.1243 20.7204C24.0575 21.344 25.2006 21.5704 26.301 21.3497C27.4015 21.129 28.3688 20.4792 28.9893 19.544C29.2086 19.2134 29.5794 19.0153 29.9761 19.0168H30.4905C31.4232 19.0178 32.3352 19.2925 33.1133 19.8069C33.7719 20.2437 34.5113 20.5445 35.2877 20.6918L24.1523 34.1113C23.9533 34.1282 23.7534 34.0923 23.5727 34.0074C22.207 33.3237 20.5571 33.5918 19.4779 34.6725L18.285 35.8654C17.8214 36.3329 17.8231 37.0872 18.2886 37.5527C18.7542 38.0182 19.5083 38.0199 19.9759 37.5564L21.1689 36.3634C21.5219 36.0106 22.0614 35.924 22.5071 36.1486C23.348 36.5725 24.3238 36.6419 25.2163 36.3413L26.5001 35.9133C26.9156 35.7726 27.3748 35.881 27.6837 36.1925C28.8811 37.3848 30.7521 37.5704 32.1603 36.6363L33.1867 35.9526C33.4837 35.755 33.8549 35.7052 34.1933 35.8178L35.9449 36.4017C36.6733 36.6434 37.4603 36.6434 38.1887 36.4017L39.9414 35.8178C40.28 35.7069 40.6507 35.7567 40.948 35.9526L43.5784 37.706C44.1277 38.067 44.8653 37.9168 45.23 37.37C45.5946 36.8231 45.4494 36.0844 44.905 35.7162L42.3133 33.9881L53.3273 25.932C54.036 27.7662 55.7992 28.9763 57.7655 28.9781C58.1524 28.9765 58.5379 28.9308 58.9145 28.8421L59.4845 31.0854C59.803 32.4265 61.0032 33.3715 62.3817 33.3666H63.9721C64.3021 33.367 64.5696 33.6344 64.5701 33.9645V35.1603C64.5718 36.8106 65.9092 38.148 67.5595 38.1497C67.8895 38.1501 68.157 38.4176 68.1574 38.7476V41.737H4.78133V39.345ZM68.7415 45.1213C65.4295 53.1477 59.6577 59.9171 52.2558 64.4564H49.0262C48.3658 64.4564 47.8305 64.9917 47.8305 65.6521C47.8305 66.3125 48.3659 66.8478 49.0262 66.8478H51.4179V68.1785C51.4173 68.7642 50.9425 69.2389 50.3569 69.2394H21.3879C20.8024 69.2386 20.3281 68.764 20.3275 68.1785V66.8478H34.6769C35.3373 66.8478 35.8726 66.3125 35.8726 65.6521C35.8726 64.9917 35.3373 64.4564 34.6769 64.4564H19.4877C12.0824 59.9196 6.30945 53.1478 3.00167 45.1178L2.59641 44.1281H69.1479L68.7415 45.1213Z" fill="#E67F1E"/>
<path d="M52.6179 60.8667C52.8283 60.8667 53.0347 60.8112 53.2164 60.7055C58.1024 57.7091 62.0137 53.3593 64.4759 48.1837C64.6432 47.7907 64.5882 47.3383 64.3315 46.997C64.0747 46.6556 63.6555 46.4771 63.2314 46.5287C62.8074 46.5802 62.4432 46.8542 62.2759 47.2471C60.023 51.9666 56.4479 55.93 51.985 58.6561L51.9804 58.659C51.5286 58.9424 51.3192 59.4909 51.4672 60.0032C51.6152 60.5155 52.0846 60.8678 52.6179 60.8667Z" fill="#E67F1E"/>
</svg>
